<svg width="215" height="23" viewBox="0 0 215 23" fill="none" xmlns="http://www.w3.org/2000/svg">
<g clip-path="url(#clip0_70_543)">
<path d="M118 1C111.95 1 107 5.95 107 12C107 18.05 111.95 23 118 23C124.05 23 129 18.05 129 12C129 5.95 124.05 1 118 1ZM126.112 10.625H123.5C123.362 8.5625 122.95 6.6375 122.4 4.9875C124.325 6.225 125.7 8.2875 126.112 10.625ZM118 20.25C117.175 20.25 115.525 17.6375 115.25 13.375H120.75C120.475 17.6375 118.825 20.25 118 20.25ZM115.25 10.625C115.525 6.3625 117.038 3.75 118 3.75C118.962 3.75 120.475 6.3625 120.75 10.625H115.25ZM113.738 4.9875C113.05 6.6375 112.638 8.5625 112.5 10.625H109.887C110.3 8.2875 111.675 6.225 113.738 4.9875ZM109.887 13.375H112.5C112.638 15.4375 113.05 17.3625 113.6 19.0125C111.675 17.775 110.3 15.7125 109.887 13.375ZM122.263 19.0125C122.95 17.3625 123.225 15.4375 123.362 13.375H125.975C125.7 15.7125 124.325 17.775 122.263 19.0125Z" fill="white"/>
</g>
<path d="M212.155 7.86639C213.159 8.50994 213.736 9.61654 213.885 11.1862H210.53C210.483 10.7545 210.361 10.4131 210.165 10.162C209.796 9.70679 209.168 9.47919 208.282 9.47919C207.552 9.47919 207.03 9.59299 206.716 9.82059C206.41 10.0482 206.257 10.315 206.257 10.6211C206.257 11.0057 206.422 11.2843 206.751 11.4569C207.081 11.6374 208.246 11.9474 210.248 12.3869C211.582 12.7009 212.582 13.1757 213.249 13.8114C213.909 14.4549 214.238 15.2594 214.238 16.2247C214.238 17.4961 213.763 18.536 212.814 19.3443C211.872 20.1449 210.412 20.5451 208.435 20.5451C206.418 20.5451 204.926 20.1213 203.961 19.2737C203.004 18.4183 202.525 17.3313 202.525 16.0128H205.927C205.998 16.6093 206.151 17.0331 206.386 17.2842C206.802 17.7315 207.571 17.9552 208.694 17.9552C209.353 17.9552 209.875 17.8571 210.259 17.6609C210.652 17.4647 210.848 17.1704 210.848 16.778C210.848 16.4013 210.691 16.1148 210.377 15.9186C210.063 15.7224 208.898 15.3849 206.881 14.9062C205.429 14.5452 204.405 14.0939 203.808 13.5524C203.212 13.0187 202.913 12.2496 202.913 11.245C202.913 10.06 203.376 9.04362 204.303 8.19602C205.236 7.34057 206.547 6.91284 208.234 6.91284C209.835 6.91284 211.142 7.23069 212.155 7.86639Z" fill="white"/>
<path d="M200.735 2.78082V20.1096H197.474V18.332C196.995 19.0933 196.45 19.6465 195.838 19.9919C195.226 20.3372 194.464 20.5098 193.554 20.5098C192.055 20.5098 190.791 19.9055 189.763 18.6969C188.743 17.4805 188.233 15.9226 188.233 14.0233C188.233 11.8337 188.735 10.111 189.74 8.85531C190.752 7.5996 192.102 6.97175 193.789 6.97175C194.566 6.97175 195.257 7.14441 195.861 7.48973C196.466 7.8272 196.956 8.29809 197.333 8.9024V2.78082H200.735ZM191.694 13.7761C191.694 14.9612 191.929 15.9069 192.4 16.6132C192.863 17.3274 193.57 17.6845 194.519 17.6845C195.469 17.6845 196.191 17.3313 196.685 16.625C197.18 15.9187 197.427 15.0044 197.427 13.8821C197.427 12.3124 197.031 11.1901 196.238 10.5152C195.751 10.1071 195.186 9.90304 194.543 9.90304C193.562 9.90304 192.84 10.2758 192.377 11.0214C191.922 11.7591 191.694 12.6774 191.694 13.7761Z" fill="white"/>
<path d="M182.899 2.75726H186.255V20.1096H182.899V2.75726Z" fill="white"/>
<path d="M180.368 10.3739C179.018 10.3739 178.112 10.8134 177.648 11.6924C177.389 12.1869 177.26 12.9481 177.26 13.9762V20.1096H173.881V7.27782H177.083V9.51455C177.601 8.6591 178.053 8.07441 178.437 7.76048C179.065 7.23465 179.881 6.97174 180.886 6.97174C180.949 6.97174 181 6.97566 181.039 6.98351C181.086 6.98351 181.184 6.98744 181.333 6.99529V10.4328C181.121 10.4092 180.933 10.3935 180.768 10.3857C180.603 10.3778 180.47 10.3739 180.368 10.3739Z" fill="white"/>
<path d="M170.361 8.90238C171.444 10.2601 171.985 11.8651 171.985 13.7172C171.985 15.6008 171.444 17.2136 170.361 18.5556C169.278 19.8898 167.634 20.5569 165.428 20.5569C163.223 20.5569 161.579 19.8898 160.496 18.5556C159.413 17.2136 158.871 15.6008 158.871 13.7172C158.871 11.8651 159.413 10.2601 160.496 8.90238C161.579 7.54465 163.223 6.86578 165.428 6.86578C167.634 6.86578 169.278 7.54465 170.361 8.90238ZM165.416 9.7029C164.435 9.7029 163.678 10.0521 163.144 10.7506C162.619 11.4413 162.356 12.4301 162.356 13.7172C162.356 15.0043 162.619 15.9971 163.144 16.6956C163.678 17.3941 164.435 17.7434 165.416 17.7434C166.397 17.7434 167.151 17.3941 167.677 16.6956C168.203 15.9971 168.465 15.0043 168.465 13.7172C168.465 12.4301 168.203 11.4413 167.677 10.7506C167.151 10.0521 166.397 9.7029 165.416 9.7029Z" fill="white"/>
<path d="M154.951 2.75726H158.635L153.75 20.1096H150.289L148.193 9.96189L147.581 6.60679L146.969 9.96189L144.874 20.1096H141.507L136.586 2.75726H140.435L142.731 12.6931L143.225 15.4595L143.732 12.7519L145.686 2.75726H149.512L151.572 12.6931L152.102 15.4595L152.632 12.799L154.951 2.75726Z" fill="white"/>
<g clip-path="url(#clip1_70_543)">
<path fill-rule="evenodd" clip-rule="evenodd" d="M46.3525 11.4693C46.3525 17.8037 41.0899 22.9387 34.5982 22.9387C28.1065 22.9387 22.8439 17.8037 22.8439 11.4693C22.8439 5.135 28.1065 0 34.5982 0C41.0899 0 46.3525 5.135 46.3525 11.4693ZM12.0731 1.09244C12.2886 0.728333 12.8271 0.728333 13.0426 1.09244L25.0399 21.3686C25.2554 21.7327 24.986 22.1878 24.5551 22.1878H0.560563C0.129684 22.1878 -0.139615 21.7327 0.0758244 21.3686L12.0731 1.09244ZM49.0102 0.682586C48.392 0.682586 47.8908 1.17163 47.8908 1.7749V21.1636C47.8908 21.7669 48.392 22.2559 49.0102 22.2559H68.8806C69.4989 22.2559 70.0001 21.7669 70.0001 21.1636V1.7749C70.0001 1.17163 69.4989 0.682586 68.8806 0.682586H49.0102Z" fill="white"/>
</g>
<defs>
<clipPath id="clip0_70_543">
<rect width="22" height="22" fill="white" transform="translate(107 1)"/>
</clipPath>
<clipPath id="clip1_70_543">
<rect width="70" height="23" fill="white"/>
</clipPath>
</defs>
</svg>
