<svg width="575" height="255" viewBox="0 0 575 255" fill="none" xmlns="http://www.w3.org/2000/svg">
<path d="M404.306 0H172.783C102.371 0 45.2832 57.0818 45.2832 127.5C45.2832 197.918 102.371 255 172.783 255H404.3C474.718 255 531.8 197.918 531.8 127.5C531.8 57.0818 474.724 0 404.306 0ZM404.306 248.297H172.783C106.069 248.297 51.9927 194.214 51.9927 127.506C51.9927 60.7987 106.076 6.70952 172.783 6.70952H404.3C471.014 6.70952 525.09 60.7923 525.09 127.5C525.09 194.208 471.008 248.29 404.3 248.29L404.306 248.297Z" fill="black"/>
<path d="M397.488 15.0964H328.805C329.484 16.113 330.202 17.2376 330.952 18.4512C333.71 22.9115 336.899 28.6616 340.19 35.4283L336.601 36.0256C336.435 36.051 336.276 36.1018 336.124 36.1781L333.411 37.5314C333.138 37.6712 332.915 37.8872 332.782 38.1604L332.769 38.1858C328.233 28.4202 323.823 20.4653 320.405 15.0964H254.136C253.627 15.8398 253.094 16.6467 252.547 17.5045L248.875 16.9771C248.042 16.8564 247.255 17.3711 247.026 18.178L245.869 22.2253C245.793 22.4985 245.647 22.7527 245.444 22.9496L243.855 24.5381C243.468 24.9256 242.909 25.1035 242.369 25.0019L240.316 24.627C241.511 22.3714 242.661 20.3001 243.735 18.4448C244.434 17.2376 245.107 16.113 245.749 15.0901H179.581C115.612 15.0964 63.7339 65.4242 63.7339 127.5C63.7339 189.576 115.606 239.904 179.594 239.904H245.761C245.05 238.893 244.287 237.775 243.493 236.549C239.033 229.68 233.442 219.546 228.174 207.188H235.729C241.625 221.014 248.042 231.72 252.871 238.226C253.31 238.823 253.742 239.383 254.155 239.904H320.424C320.805 239.376 321.205 238.817 321.612 238.226C326.339 231.39 332.591 220.595 338.443 207.188H347.249C341.779 219.705 335.914 229.814 331.244 236.549C330.393 237.781 329.573 238.9 328.811 239.904H397.495C461.483 239.904 513.355 189.576 513.355 127.5C513.355 65.4242 461.476 15.0964 397.488 15.0964ZM509.962 130.016H478.74C478.778 128.974 478.803 127.932 478.803 126.884C478.803 114.837 476.134 103.547 471.661 93.1074H504.275C507.979 103.921 509.993 115.485 509.993 127.5C509.993 128.339 509.981 129.177 509.962 130.016ZM204.882 205.511C204.354 204.926 204.297 204.037 204.78 203.389L205.574 202.328C206.019 201.73 206.019 200.911 205.574 200.314L204.767 199.233C204.246 198.541 204.418 197.556 205.136 197.08C205.803 196.635 206.006 195.745 205.593 195.053L204.443 193.134C204.17 192.67 204.5 192.086 205.034 192.086C205.568 192.086 205.917 191.469 205.612 191.012L205.307 190.554C204.964 190.04 205.174 189.347 205.739 189.106L209.31 187.574C210.022 187.269 210.428 186.52 210.301 185.757L210.003 183.978C209.831 182.955 210.619 182.028 211.655 182.028H213.809C214.368 182.028 214.895 181.748 215.206 181.278L215.359 181.043C217.831 189.792 220.747 198.02 223.822 205.511H204.869H204.882ZM67.184 131.7H98.5205C99.0097 144.344 102.415 156.124 107.721 166.931H74.6813C70.2782 155.933 67.6668 144.077 67.184 131.7ZM100.198 131.7H135.995C136.395 144.337 139.146 156.124 143.448 166.931H109.595C104.175 156.124 100.706 144.337 100.204 131.7H100.198ZM100.128 128.536C100.128 115.911 103.121 104.061 108.096 93.1137H137.176C136.535 93.6855 136.408 94.664 136.941 95.3693L138.301 97.1864C138.365 97.269 138.415 97.3516 138.46 97.4406L139.915 100.357C137.386 109.233 135.931 118.649 135.931 128.536C135.931 129.031 135.944 129.527 135.95 130.022H100.147C100.141 129.527 100.122 129.038 100.122 128.536H100.128ZM105.961 60.9576C106.31 61.1355 106.729 61.1355 107.079 60.9576L116.584 56.205L119.221 54.5276H133.777C133.275 55.0232 132.78 55.5251 132.284 56.0271C122.213 66.3137 113.204 78.1952 107.015 91.4363H73.4042C78.3856 77.6678 86.1307 65.151 96.0044 54.5276H113.223L107.13 56.8149C106.736 56.9611 106.405 57.2597 106.221 57.6346L105.395 59.2802C105.084 59.8965 105.338 60.6526 105.954 60.9576H105.961ZM128.421 51.5032L132.322 50.3913C132.456 50.3532 132.602 50.3341 132.742 50.3341H137.704C137.837 50.3341 137.964 50.3532 138.091 50.385C137.221 51.1983 136.35 52.0179 135.493 52.8502H121.864L125.695 50.4167C125.778 50.3659 125.873 50.3278 125.962 50.3024L127.506 49.9148C127.976 49.8004 128.3 50.3723 127.957 50.7154C127.608 51.0648 127.957 51.643 128.427 51.5096L128.421 51.5032ZM223.962 52.8502H215.359L215.194 52.1958C214.946 51.211 213.885 50.6645 212.945 51.0458L211.559 51.5985C210.937 51.8463 210.225 51.7002 209.749 51.2237L208.999 50.4739C208.904 50.3786 208.815 50.2706 208.745 50.1499L206.928 47.1255C206.578 46.541 206.667 45.7976 207.15 45.3147C207.652 44.8128 208.433 44.7365 209.018 45.1305L210.524 46.1343L213.809 48.104C214.209 48.3454 214.717 48.0532 214.717 47.5893V47.0493C214.717 46.7125 215.124 46.541 215.365 46.7824C215.48 46.8968 215.658 46.9286 215.804 46.8523L216.134 46.6871C216.681 46.4139 216.795 45.6896 216.363 45.2639L215.238 44.1393C214.952 43.8534 214.952 43.3895 215.238 43.1036C215.435 42.9067 215.727 42.8368 215.988 42.9257L217.24 43.3451C217.761 43.5166 218.339 43.4277 218.777 43.0973L219.883 42.2713C220.702 41.6613 220.785 40.4668 220.061 39.7425L219.87 39.5519C219.794 39.4756 219.724 39.3867 219.66 39.2977L218.263 37.201C218.142 37.0168 217.983 36.8579 217.799 36.7372L215.562 35.2441L213.161 34.0432C212.69 33.8081 212.589 33.1855 212.957 32.8106C213.37 32.3976 213.186 31.686 212.627 31.5271L212.373 31.4573C212.195 31.4064 212.068 31.3111 211.966 31.2031C212.487 30.6313 213.002 30.0721 213.51 29.5257L221.007 28.5917C221.287 28.56 221.573 28.5917 221.84 28.6997L225.334 30.0976C225.531 30.1738 225.747 30.2183 225.957 30.2183H228.988C229.515 30.2183 230.011 30.4661 230.328 30.8918L231.86 32.9377C231.999 33.1283 232.095 33.338 232.145 33.5603C229.432 39.3422 226.637 45.8357 223.956 52.8693L223.962 52.8502ZM241.441 46.3313L243.074 43.8788C243.188 43.7072 243.328 43.5611 243.493 43.4467L248.843 39.6281C249.021 39.5011 249.224 39.4058 249.44 39.3613L258.247 37.3281C259.085 37.1375 259.441 36.1463 258.926 35.4601C258.342 34.6786 258.901 33.5603 259.873 33.5603H260.661C261.296 33.5603 261.881 33.1982 262.16 32.6327L263.126 30.7012C263.241 30.4724 263.075 30.2056 262.821 30.2056C262.484 30.2056 262.351 29.7672 262.631 29.5829L263.514 28.9984C263.723 28.8586 263.622 28.5345 263.374 28.5345H265.591C265.788 28.5345 265.979 28.5028 266.163 28.4329C267.93 27.7912 267.466 25.1798 265.591 25.1798H260.508C259.968 25.1798 259.797 24.4491 260.28 24.2077C260.724 23.9853 260.623 23.3245 260.134 23.2419L258.285 22.9369C257.503 22.8035 257.096 21.933 257.509 21.2532L257.903 20.5988C258.348 19.8617 258.126 18.9659 257.522 18.4766H271.888C269.035 25.2179 265.172 36.9977 261.779 52.8693H238.76C239.643 50.6264 240.532 48.4534 241.428 46.3504L241.441 46.3313ZM434.086 44.9907C434.384 44.9398 434.696 44.978 434.988 45.1241C435.217 45.2385 435.414 45.41 435.56 45.626L436.259 46.668C436.328 46.7697 436.379 46.8841 436.424 46.9921C435.649 46.3122 434.873 45.6451 434.092 44.9843L434.086 44.9907ZM435.699 48.5996C435.579 48.6313 435.458 48.6504 435.337 48.6504C434.499 48.6504 436.176 50.3278 436.176 51.1665C436.176 51.3889 436.239 51.5604 436.335 51.6811C436.621 52.0624 437.154 51.732 437.364 51.3063C437.51 51.014 437.758 50.8107 438.044 50.69C438.819 51.4016 439.594 52.1132 440.363 52.8439H434.67C434.721 52.5707 434.683 52.2784 434.499 52.0052L432.459 48.5996C432.16 48.1103 432.141 47.5004 432.396 46.9857L432.821 46.1343V46.1216C433.787 46.9349 434.746 47.7609 435.699 48.5996ZM503.684 91.4363H470.931C464.736 77.6996 455.421 65.4751 444.97 54.9914C444.811 54.8326 444.658 54.6801 444.499 54.5276H481.084C490.958 65.151 498.709 77.6678 503.684 91.4363ZM443.781 56.1796C453.96 66.39 462.995 78.2206 469.082 91.4363H434.937C434.283 89.6382 433.577 87.8655 432.834 86.1183C432.866 85.7243 433.031 85.3558 433.31 85.0763L434.168 84.2185C434.384 84.0025 434.651 83.85 434.95 83.7801L437.656 83.1066C437.79 83.0748 437.923 83.0558 438.063 83.0558H439.537C440.465 83.0558 441.214 82.306 441.214 81.3784V78.0236C441.214 77.5408 439.467 76.4416 437.86 75.552C436.977 75.0628 436.672 73.9255 437.231 73.0868L437.498 72.6929C437.726 72.3434 438.088 72.1083 438.476 71.9558C439.467 71.5492 440.363 70.7486 438.698 69.6367C436.818 68.385 435.274 68.9823 434.626 69.5224C434.543 69.5923 434.473 69.6812 434.41 69.7702L433.253 71.5047C432.98 71.9114 432.897 72.426 433.037 72.8962L434.321 77.3946C434.435 77.7949 434.397 78.2333 434.206 78.6082L433.037 80.94C432.897 81.2259 432.675 81.4673 432.402 81.6262L431.169 82.3696C429.409 78.5955 427.471 74.9548 425.387 71.4475L426.112 69.6367L426.9 66.4853C426.931 66.3519 426.95 66.2121 426.95 66.0787V63.1305C426.95 62.4952 426.588 61.917 426.023 61.6311L424.326 60.786C423.862 60.5573 423.532 60.1252 423.43 59.6169L423.125 58.0793C422.928 57.0945 421.918 56.51 420.965 56.8276C420.501 56.9801 419.999 56.9293 419.58 56.6752L417.452 55.3981C417.128 55.2011 416.931 54.8898 416.867 54.553H442.11C442.669 55.0994 443.229 55.6458 443.781 56.1986V56.1796ZM477.062 130.029H441.265C441.297 128.987 441.316 127.945 441.316 126.896C441.316 114.856 439.156 103.566 435.528 93.1201H469.832C474.4 103.559 477.126 114.85 477.126 126.896C477.126 127.945 477.1 128.993 477.056 130.029H477.062ZM437.301 148.347C437.116 148.442 436.97 148.588 436.875 148.772L436.303 149.922C436.22 150.081 436.119 150.227 435.992 150.361L434.016 152.33C433.825 152.521 433.507 152.521 433.31 152.33C433.069 152.089 432.669 152.159 432.516 152.457L432.211 153.067C432.071 153.341 431.792 153.518 431.487 153.518C431.271 153.518 431.068 153.43 430.915 153.277L430.731 153.099C430.464 152.832 430.095 152.68 429.721 152.68H429.536C428.977 152.68 428.45 152.959 428.139 153.43L427.052 155.062C426.988 155.151 426.919 155.24 426.842 155.317L426.595 155.564C426.29 155.869 425.877 156.041 425.445 156.041C424.828 156.041 424.263 156.39 423.99 156.937L423.602 157.718L423.075 158.773C422.878 159.173 422.528 159.472 422.102 159.618L420.457 160.164C420.317 160.209 420.184 160.279 420.057 160.361L417.725 161.912L414.535 163.507C414.427 163.564 414.313 163.602 414.192 163.634L412.547 164.047C411.759 164.244 411.358 165.114 411.721 165.838C411.809 166.016 411.854 166.207 411.854 166.404V166.944H399.763C402.095 159.23 403.867 151.047 404.852 142.431C405.214 142.768 405.557 143.079 405.869 143.353C405.945 143.422 406.028 143.48 406.117 143.537C407.565 144.401 410.367 145.97 411.015 145.97C411.492 145.97 412.566 145.405 413.449 144.877C413.849 144.636 414.37 144.922 414.37 145.386C414.37 145.71 414.631 145.97 414.955 145.97H415.628C416.321 145.97 416.886 145.405 416.886 144.712V144.363C416.886 143.797 416.587 143.276 416.105 142.984L413.087 141.173C412.826 141.014 412.527 140.932 412.222 140.932H408.766C408.588 140.932 408.404 140.9 408.232 140.843L407.12 140.474C406.434 140.246 405.97 139.604 405.97 138.88V137.571C405.97 137.126 405.862 136.122 405.481 135.055C405.551 133.943 405.602 132.824 405.64 131.7H408.207L408.29 131.948C408.417 132.329 408.677 132.653 409.02 132.856L412.566 134.985C412.642 135.029 412.724 135.074 412.807 135.105L416.88 136.732L420.775 138.289C420.972 138.365 421.181 138.409 421.397 138.409H422.058C422.503 138.409 422.928 138.231 423.246 137.92L423.837 137.329C424.167 136.999 424.695 136.999 425.025 137.329C425.184 137.488 425.394 137.577 425.616 137.577H427.3C427.954 137.577 428.412 136.935 428.208 136.319C427.999 135.703 428.463 135.061 429.117 135.061H429.714C430.045 135.061 430.305 134.794 430.305 134.47C430.305 134.311 430.242 134.165 430.134 134.051L427.91 131.827C427.865 131.782 427.814 131.751 427.764 131.713H439.518C439.238 137.431 438.47 142.978 437.294 148.353L437.301 148.347ZM398.606 129.324C398.492 129.241 398.39 129.139 398.301 129.031L395.582 125.632C395.264 125.232 394.782 125.003 394.273 125.003H394.241C393.314 125.003 392.634 125.765 393.041 126.598C393.549 127.633 394.394 128.847 395.271 130.041H367.391C367.378 127.011 367.276 123.986 367.098 120.975C367.467 121.508 368.255 121.629 368.757 121.127C368.96 120.924 369.24 120.81 369.525 120.81H370.574C370.688 120.81 370.796 120.867 370.866 120.956L372.175 122.697C372.296 122.855 372.543 122.703 372.455 122.525C372.442 122.5 372.435 122.474 372.435 122.449V120.136C372.435 120.028 372.423 119.914 372.404 119.806L371.629 115.936C371.61 115.828 371.597 115.72 371.597 115.606V112.416C371.597 111.889 371.845 111.393 372.27 111.076L374.64 109.303C374.85 109.144 375.015 108.941 375.136 108.712L377.201 104.582C377.379 104.226 377.677 103.947 378.039 103.788L382.061 102.06C382.805 101.742 383.669 101.996 384.12 102.67L384.933 103.89C384.997 103.985 385.067 104.068 385.143 104.144L387.049 106.05C387.367 106.361 387.538 106.793 387.538 107.238V108.159C387.538 108.718 387.818 109.246 388.288 109.557L389.483 110.358C389.838 110.593 390.289 110.625 390.671 110.434C391.255 110.142 391.973 110.377 392.265 110.961L392.412 111.26C392.52 111.47 392.672 111.654 392.856 111.794L395.709 113.928C395.855 114.036 396.014 114.119 396.186 114.176L397.73 114.691C398.181 114.843 398.549 115.18 398.74 115.619C399.623 117.715 400.964 121.038 400.964 121.636C400.964 122.233 402.406 121.007 403.289 120.149C403.416 120.022 403.562 119.92 403.728 119.837L403.886 119.755C404.013 122.106 404.083 124.482 404.083 126.89C404.083 127.938 404.064 128.987 404.045 130.022H399.572L398.626 129.311L398.606 129.324ZM355.649 130.035C355.585 119.031 354.321 108.007 352.262 97.3199H352.447C352.891 97.3199 353.317 97.4978 353.635 97.8091L354.461 98.6351C354.696 98.8702 354.855 99.1688 354.918 99.4928L355.585 102.816C355.636 103.064 355.738 103.292 355.89 103.496L358.178 106.545C359.016 107.943 360.694 110.904 360.694 111.578C360.694 112.416 362.371 114.094 362.371 114.932C362.371 115.301 362.886 116.203 363.483 117.118C363.826 121.388 364.023 125.702 364.042 130.029H355.655L355.649 130.035ZM219.819 135.175L218.339 132.214C218.244 132.024 218.11 131.852 217.951 131.713H219.775C219.775 132.869 219.794 134.025 219.826 135.175H219.819ZM178.819 166.944C176.487 159.11 174.765 150.761 173.876 141.942L175.775 143.206C176.017 143.372 176.214 143.594 176.347 143.854L178.584 148.327C178.634 148.436 178.698 148.531 178.774 148.626L182.021 152.68L184.34 156.549C184.467 156.759 184.645 156.943 184.848 157.083L189.328 160.069C189.487 160.177 189.626 160.304 189.741 160.457L191.405 162.681C191.812 163.227 191.85 163.964 191.501 164.549L190.065 166.938H178.812L178.819 166.944ZM137.621 128.548C137.621 119.837 138.771 111.495 140.798 103.566L140.843 103.731C140.893 103.928 140.989 104.106 141.135 104.245C141.758 104.868 142.831 104.544 143.003 103.68L143.435 101.513L143.6 101.018C143.911 100.09 145.087 99.8105 145.779 100.503C145.894 100.617 145.983 100.751 146.053 100.897L149.083 107.708C149.229 108.039 149.484 108.318 149.801 108.496L156.212 112.06C156.625 112.289 157.108 112.334 157.559 112.188L158.792 111.775C159.167 111.647 159.58 111.66 159.948 111.806L163.252 113.128C163.462 113.211 163.652 113.338 163.818 113.496L165.597 115.275C165.908 115.593 166.34 115.765 166.785 115.765H167.77C168.697 115.765 169.447 116.514 169.447 117.442V118.224C169.447 118.783 169.727 119.31 170.197 119.621L171.766 120.67C171.614 123.262 171.537 125.886 171.537 128.548C171.537 129.044 171.544 129.54 171.55 130.035H137.653C137.647 129.54 137.634 129.05 137.634 128.548H137.621ZM214.768 130.035C214.711 129.997 214.647 129.965 214.596 129.927L211.42 127.386C211.68 115.822 213.205 104.258 215.524 93.1264H223.517C221.242 104.849 219.832 117.264 219.775 130.035H214.768ZM173.602 138.88C173.418 136.522 173.304 134.133 173.247 131.713H176.709L176.188 134.819C176.163 134.985 176.112 135.144 176.036 135.296L174.721 137.926C174.555 138.251 174.295 138.511 173.971 138.676L173.704 138.81C173.666 138.829 173.64 138.854 173.602 138.88ZM173.202 128.555C173.202 126.261 173.266 123.999 173.38 121.763L174.193 122.303C174.377 122.423 174.536 122.582 174.657 122.766L175.947 124.704C176.08 124.901 176.169 125.124 176.207 125.359L176.944 129.762C176.957 129.851 176.97 129.946 176.97 130.035H173.221C173.221 129.54 173.208 129.05 173.208 128.548L173.202 128.555ZM172.192 112.219L169.955 111.902C168.85 111.743 168.208 110.574 168.659 109.557L170.063 106.393C170.559 105.281 169.746 104.036 168.532 104.036H167.617C167.172 104.036 166.747 104.214 166.429 104.525L164.199 106.755C163.805 107.149 163.233 107.327 162.687 107.213L160.723 106.819C159.942 106.66 159.376 105.974 159.376 105.173V104.43C159.376 104.169 159.313 103.915 159.198 103.68L158.239 101.761C157.915 101.113 158.042 100.338 158.55 99.8232L158.881 99.4928C159.192 99.1752 159.37 98.7495 159.37 98.3047V98.2285C159.37 97.0149 160.622 96.2016 161.727 96.6972L166.194 98.6796C166.651 98.8829 167.179 98.8702 167.623 98.6478L173.272 95.8204C173.507 95.706 173.761 95.6425 174.022 95.6425H175.54C175.197 97.0276 174.879 98.4254 174.574 99.8359H173.132C172.91 99.8359 172.694 99.9249 172.541 100.084L172.224 100.401C171.811 100.814 172.103 101.513 172.687 101.513C172.757 101.513 172.827 101.526 172.891 101.545L174.142 101.964C173.475 105.332 172.922 108.776 172.503 112.289C172.401 112.257 172.3 112.226 172.192 112.213V112.219ZM208.109 125.988L205.714 125.302C205.098 125.124 204.672 124.565 204.672 123.923C204.672 123.129 204.03 122.487 203.236 122.487H202.664C202.334 122.487 202.01 122.385 201.737 122.207L200.129 121.134C199.824 120.93 199.64 120.587 199.64 120.225C199.64 119.621 199.151 119.132 198.547 119.132H197.88C197.416 119.132 196.997 119.393 196.787 119.806C196.501 120.371 195.834 120.625 195.243 120.39L192.854 119.437C192.39 119.253 192.092 118.808 192.092 118.306C192.092 117.283 190.91 116.718 190.116 117.359L188.356 118.764C188.057 119.005 187.689 119.132 187.307 119.132H185.103C184.74 119.132 184.385 119.247 184.099 119.469L181.64 121.311C181.348 121.528 180.998 121.648 180.636 121.648H178.234C177.974 121.648 177.72 121.591 177.484 121.47L176.658 121.057C176.334 120.892 176.068 120.632 175.909 120.308L173.818 116.127C173.818 116.127 173.806 116.082 173.793 116.063C174.225 111.438 174.886 106.939 175.744 102.562L178.565 103.972C178.634 104.004 178.711 104.036 178.781 104.061C179.664 104.353 181.379 104.862 182.021 104.862H183.349C184.003 104.862 184.537 105.395 184.537 106.05C184.537 106.361 184.658 106.673 184.931 106.831C185.369 107.092 186.1 107.378 187.053 107.378C188.394 107.378 189.29 106.819 189.569 106.539L189.817 106.291C190.147 105.961 190.147 105.434 189.817 105.103C189.658 104.944 189.448 104.855 189.226 104.855H187.326C187.148 104.855 186.964 104.824 186.799 104.766L185.09 104.195C184.734 104.074 184.429 103.845 184.226 103.534L183.368 102.244C183.057 101.774 182.529 101.494 181.97 101.494H181.049C180.604 101.494 180.178 101.316 179.861 101.005L179.168 100.312C178.857 100.001 178.425 99.8232 177.98 99.8232H176.309C176.614 98.4254 176.932 97.0403 177.275 95.6743C177.7 95.7632 178.088 96.011 178.336 96.3795L180.305 99.334C180.763 100.02 181.741 100.122 182.326 99.531C182.663 99.1942 182.79 98.6986 182.663 98.2412L181.398 93.8253C181.328 93.5902 181.322 93.3488 181.354 93.1137H212.112C209.92 103.794 208.459 114.869 208.122 125.969L208.109 125.988ZM182.218 91.449L187.79 82.3886C187.86 82.2743 187.943 82.1726 188.032 82.0837L191.895 78.2206C192.022 78.0935 192.168 77.9855 192.333 77.9093L196.374 75.8888C196.832 75.6601 197.124 75.1899 197.124 74.6752C197.124 74.1606 197.416 73.6904 197.874 73.4617L203.052 70.8757C203.414 70.6978 203.833 70.9583 203.833 71.3586C203.833 71.7589 204.221 72.0067 204.577 71.8605L207.754 70.5898C208.98 70.1006 208.764 68.3088 207.455 68.1182L207.321 68.0991C206.762 68.0229 206.349 67.54 206.349 66.9809V66.4599C206.349 66.3519 206.413 66.2502 206.508 66.1994C206.8 66.0532 206.667 65.6085 206.343 65.653L204.672 65.8626C204.024 65.9452 203.757 65.0621 204.342 64.7698L206.235 63.8231C206.311 63.785 206.387 63.7595 206.47 63.7405L212.729 62.4888C213.764 62.2791 214.736 63.0733 214.736 64.1344V64.6046C214.736 65.1319 214.984 65.6275 215.41 65.9452L217.691 67.6544C217.945 67.845 218.091 68.1436 218.091 68.4613C218.091 68.7154 218.186 68.9378 218.332 69.103C216.102 76.2446 214.101 83.7356 212.455 91.4427H182.212L182.218 91.449ZM171.569 131.713C171.861 144.35 173.895 156.13 177.071 166.944H145.258C140.887 156.143 138.085 144.356 137.678 131.713H171.569ZM226.942 93.1264H255.743C255.68 93.8253 255.616 94.5242 255.559 95.2231C255.203 95.49 254.968 95.8903 254.904 96.3287L254.314 100.484C254.225 101.113 253.786 101.64 253.183 101.837L252.198 102.168C251.842 102.282 251.537 102.517 251.334 102.829L249.351 105.802C248.792 106.641 249.091 107.784 249.999 108.236L250.73 108.598C251.296 108.884 251.658 109.462 251.658 110.097V116.756C251.658 117.201 251.836 117.626 252.147 117.944L254.091 119.882C254.142 119.933 254.186 119.99 254.231 120.047C254.167 122.843 254.136 125.677 254.136 128.548C254.136 129.044 254.136 129.54 254.136 130.035H223.136C223.199 117.264 224.642 104.836 226.948 93.1264H226.942ZM266.748 59.5724H267.625C268.527 59.5724 269.264 58.8418 269.264 57.9332C269.264 57.3868 269.537 56.8721 269.995 56.5671L270.636 56.1414C271.303 55.6967 272.187 55.7856 272.752 56.3511L273.457 57.0564C273.985 57.5774 273.178 57.4567 272.396 57.2406C272.091 57.158 271.78 57.3804 271.78 57.6981C271.78 57.8252 271.729 57.9395 271.646 58.0348C271.354 58.3716 270.941 58.9943 270.941 59.5724C270.941 60.2459 271.5 59.852 271.78 59.5724L271.183 60.1697C271.03 60.3222 270.941 60.5319 270.941 60.7542C270.941 61.3706 271.589 61.7645 272.136 61.4913L272.511 61.3007C272.58 61.2625 272.657 61.2371 272.733 61.2181L275.795 60.4556C275.916 60.4238 276.031 60.3857 276.139 60.3285L276.755 60.0236C277.308 59.7504 277.651 59.1849 277.651 58.5686C277.651 58.1365 277.479 57.7235 277.174 57.4185L277.003 57.247C276.876 57.1199 276.768 56.9738 276.691 56.8086L276.094 55.6204C276.011 55.4616 275.91 55.3155 275.783 55.182C275.611 54.9978 275.414 54.7754 275.217 54.5403H282.067C281.812 55.2392 282.041 56.0652 282.708 56.5163L282.842 56.6053C283.274 56.8912 283.814 56.9674 284.303 56.8022L285.784 56.3066C285.955 56.2495 286.133 56.2177 286.311 56.2177H287.804V58.6639C287.62 58.6385 287.442 58.594 287.277 58.5114L286.559 58.1492C286.222 57.984 285.847 57.9332 285.479 58.0031L281.851 58.7274L279.995 59.3437C279.57 59.4835 279.226 59.7885 279.023 60.1824L278.693 60.8432C278.566 61.1037 278.369 61.3261 278.121 61.4913L275.973 62.9209L274.652 63.5816C274.417 63.696 274.163 63.7595 273.902 63.7595H273.337C272.898 63.7595 272.498 64.0073 272.301 64.4013L272.269 64.4648C272.002 65.0049 271.348 65.2209 270.808 64.954L270.636 64.8651C270.319 64.7062 269.937 64.7698 269.683 65.0176C269.435 65.2654 269.372 65.653 269.531 65.9643L269.855 66.6124C270.02 66.9364 270.28 67.2033 270.604 67.3621L271.284 67.6989C271.608 67.864 271.869 68.1245 272.034 68.4486L272.314 69.0077C272.511 69.408 272.542 69.8655 272.403 70.2912L272.168 71.0028C271.939 71.689 271.297 72.1528 270.573 72.1528H270.223C270.147 72.1528 270.064 72.1528 269.988 72.1337L265.433 71.4857C264.721 71.384 264.016 71.7525 263.698 72.3942L263.679 72.4324C263.501 72.7882 263.457 73.2012 263.552 73.5887L264.06 75.6219C264.175 76.0794 264.092 76.5686 263.831 76.9562L263.107 78.0427C262.77 78.5446 262.732 79.1864 262.999 79.7264L263.666 81.0671C264.003 81.7469 264.753 82.1091 265.496 81.9629L268.279 81.4038C268.381 81.3847 268.476 81.353 268.571 81.3149L271.57 80.114C272.206 79.8599 272.625 79.2435 272.625 78.5573V78.2142C272.625 77.5789 272.987 77.0007 273.553 76.7148L274.302 76.3399L276.539 74.8468C276.723 74.7261 276.882 74.5672 277.003 74.383L277.994 72.8962C278.305 72.426 278.826 72.1465 279.392 72.1465H282.48C282.619 72.1465 282.753 72.1274 282.886 72.0956L284.735 71.6318C285.498 71.4412 286.292 71.8034 286.641 72.5086L286.756 72.7373C286.838 72.8962 286.94 73.0423 287.067 73.1757L287.798 73.9064V86.8617C287.232 86.5757 286.876 85.9976 286.876 85.3622V84.7204C286.876 84.1931 286.629 83.6975 286.203 83.3798L284.22 81.893C283.782 81.5627 283.204 81.4673 282.683 81.6453L281.26 82.1218C281.088 82.179 280.91 82.2107 280.732 82.2107H277.085C276.907 82.2107 276.723 82.2361 276.552 82.2997L271.774 83.8945L267.745 84.7014C267.637 84.7204 267.529 84.7332 267.415 84.7332H265.903C265.375 84.7332 264.88 84.981 264.562 85.4067L262.618 87.999C262.567 88.0625 262.516 88.1197 262.465 88.1769L261.366 89.2761C261.055 89.5874 260.877 90.0195 260.877 90.4642V91.0742C260.877 91.2012 260.858 91.322 260.832 91.4427H257.592C258.945 77.5408 260.947 65.1447 263.164 54.534H270.179C270.128 54.534 270.083 54.5467 270.039 54.5657L268.432 55.3726L266.996 56.0906C266.837 56.1732 266.684 56.2749 266.57 56.4147C266.284 56.7641 265.915 57.3486 265.915 57.8887C265.915 57.965 265.909 58.0476 265.896 58.1238C265.788 58.7338 266.138 59.5661 266.754 59.5661L266.748 59.5724ZM292.62 49.3747L292.404 49.1587C292.093 48.8474 291.915 48.4153 291.915 47.9706V47.888C291.915 47.3288 292.194 46.8015 292.658 46.4901L294.291 45.4037C294.38 45.3401 294.469 45.2702 294.545 45.194L295.911 43.8279C296.038 43.7009 296.185 43.5929 296.35 43.5166L297.341 43.021C297.62 42.8812 297.951 42.8812 298.23 43.021L298.402 43.11C298.923 43.3705 299.037 44.0694 298.624 44.4824L297.436 45.6705C297.125 45.9818 296.947 46.4139 296.947 46.8587V48.2819C296.947 48.5424 297.011 48.7965 297.125 49.0316L297.182 49.1524C297.532 49.8576 298.326 50.2198 299.088 50.0292L300.912 49.5717C301.058 49.5336 301.217 49.5336 301.369 49.5717L302.043 49.7369C302.761 49.9148 302.799 50.9187 302.1 51.1538C302.024 51.1792 301.947 51.1919 301.865 51.1919H300.626C300.092 51.1919 299.749 51.751 299.984 52.2276C300.092 52.4372 300.067 52.6723 299.971 52.8693H291.915L292.83 51.4969C293.275 50.8297 293.186 49.9466 292.62 49.3811V49.3747ZM417.566 52.1704L417.312 51.1474C417.153 50.4993 417.82 49.9656 418.417 50.2643C418.525 50.3214 418.646 50.3469 418.767 50.3469H419.586C420.234 50.3469 420.616 49.6289 420.26 49.0888C419.898 48.5488 420.285 47.8308 420.933 47.8308H423.221C423.481 47.8308 423.742 47.8943 423.97 48.0087L425.292 48.6695L428.316 50.1817C428.532 50.2897 428.774 50.3469 429.009 50.3469C429.314 50.3469 429.619 50.4358 429.867 50.6137C430.75 51.2491 431.995 52.2847 431.995 52.8629H417.534C417.604 52.6405 417.623 52.3991 417.566 52.1704ZM428.463 91.449C428.577 91.449 428.691 91.4109 428.787 91.3347L432.097 88.6852C432.465 89.6001 432.821 90.5214 433.164 91.4427H418.246L417.032 88.4056C416.95 88.1959 416.823 88.0053 416.664 87.8401L415.348 86.5249C415.272 86.4487 415.183 86.3788 415.094 86.3152L413.913 85.5274C413.226 85.0699 412.991 84.174 413.36 83.437L413.372 83.4116C413.493 83.1765 413.671 82.9732 413.887 82.827L414.631 82.3315C415.272 81.9058 415.209 80.9463 414.523 80.6032C414.434 80.5588 414.338 80.527 414.237 80.5143L410.367 79.8662C409.783 79.7709 409.351 79.2626 409.351 78.6717C409.351 78.2651 409.554 77.8902 409.891 77.6615L410.761 77.0833C411.314 76.7148 412.07 76.9689 412.286 77.6043C412.496 78.2397 413.252 78.5002 413.83 78.1634C414.669 77.6742 415.622 77.1849 416.06 77.1849C416.695 77.1849 418.379 78.1825 419.269 78.767C419.364 78.8306 419.466 78.8814 419.574 78.9259L419.968 79.0847C421.34 79.6311 422.693 78.2714 422.147 76.9054L421.925 76.3463L421.639 75.1899C421.391 74.1923 422.293 73.2901 423.291 73.5379C423.735 73.6459 424.187 73.5252 424.511 73.2393C426.385 76.4606 428.132 79.7963 429.733 83.2337L429.454 83.3989C428.945 83.7039 428.64 84.2503 428.64 84.8348V87.8719C428.64 88.0117 428.621 88.1451 428.59 88.2785L427.961 90.7946C427.878 91.1186 428.126 91.4363 428.456 91.4363L428.463 91.449ZM402.406 105.834C402.597 107.028 402.775 108.229 402.933 109.436C401.821 108.515 400.964 107.695 400.964 107.384C400.964 106.8 401.821 106.171 402.406 105.834ZM293.198 76.7211L289.526 72.3116C289.526 72.3116 289.494 72.2608 289.475 72.2418V71.2379C289.767 70.8185 290.409 70.6597 290.854 71.1044L293.472 73.7222C293.548 73.7984 293.637 73.8683 293.726 73.9318L295.619 75.1962C295.924 75.3996 296.102 75.7363 296.102 76.0985C296.102 76.27 296.14 76.4352 296.216 76.5877L296.82 77.7949C296.903 77.9537 297.004 78.1062 297.131 78.2333L298.269 79.3706C298.491 79.593 298.618 79.898 298.618 80.2093C298.618 80.8637 299.152 81.3975 299.806 81.3975H301.134C301.808 81.3975 301.414 80.2792 301.134 79.7201L300.156 78.2524C299.749 77.6424 299.832 76.8291 300.346 76.3081C300.816 75.838 301.528 75.7236 302.125 76.0222L302.564 76.2446C302.723 76.3272 302.875 76.4289 303.002 76.5559L303.993 77.5471C304.305 77.8584 304.483 78.2905 304.483 78.7353V79.8599C304.483 80.3046 304.66 80.7303 304.972 81.048L305.042 81.1179C305.226 81.3022 305.448 81.4419 305.696 81.5245L307.577 82.1536C307.748 82.2107 307.926 82.2425 308.104 82.2425H309.114C309.375 82.2425 309.629 82.2997 309.864 82.4204L310.563 82.7699C310.963 82.9668 311.421 82.9986 311.846 82.8588L313.479 82.3124C313.625 82.2616 313.778 82.2361 313.937 82.2361C314.737 82.2361 315.379 82.8842 315.379 83.6784V83.761C315.379 83.8627 315.366 83.9644 315.347 84.0597L314.674 87.4271C314.585 87.8655 314.331 88.2468 313.962 88.4946L312.444 89.5048C312.171 89.6891 311.846 89.7844 311.516 89.7844H301.814C301.369 89.7844 300.943 89.6065 300.626 89.2951L298.599 87.2683C298.135 86.8045 297.385 86.8045 296.922 87.2683C296.458 87.7321 296.458 88.4819 296.922 88.9457C297.385 89.4095 297.385 90.1592 296.922 90.6231L296.839 90.7056C296.401 91.1441 295.714 91.214 295.193 90.8709L293.567 89.7844L290.212 88.107L289.456 87.7321V75.6092L290.212 76.3653L290.72 76.8736C290.936 77.0896 291.089 77.3565 291.165 77.6551L291.584 79.3452C291.743 79.9679 292.436 80.2919 293.008 79.9996C293.351 79.8281 293.567 79.4786 293.567 79.0974V77.8076C293.567 77.4137 293.427 77.0325 293.179 76.7338L293.198 76.7211ZM317.323 96.8497L318.537 98.6669C318.715 101.094 318.874 103.559 319.013 106.069L316.243 99.8296L313.791 95.7441C313.746 95.6743 313.727 95.598 313.727 95.5154C313.727 95.185 314.07 94.9754 314.369 95.1215L316.688 96.2779C316.948 96.4049 317.171 96.6082 317.336 96.8497H317.323ZM330.958 91.4427C330.831 90.8899 331.085 90.3054 331.613 90.0449C331.962 89.867 332.382 89.867 332.731 90.0449L332.922 90.1402C333.43 90.3943 333.754 90.8899 333.824 91.4427H330.958ZM296.216 56.5989C296.14 56.8912 295.988 57.1644 295.778 57.3804L295.683 57.4757C295.416 57.7426 295.06 57.9141 294.679 57.9586L289.475 58.5368V55.9254C289.634 55.8238 289.78 55.6967 289.894 55.5442L290.65 54.5403H296.731L296.216 56.6053V56.5989ZM285.517 52.2148C285.32 52.6088 284.919 52.8502 284.481 52.8502H284.189H281.202C281.603 52.4881 282.048 51.9798 282.416 51.5159C282.594 51.2936 282.823 51.1157 283.083 51.0076L284.055 50.6201C285.04 50.2261 285.993 51.2618 285.517 52.2085V52.2148ZM258.412 93.1201C258.316 93.1645 258.221 93.2217 258.139 93.2853L257.357 93.8698C257.382 93.622 257.401 93.3742 257.427 93.1201H258.412ZM255.8 128.542C255.8 126.414 255.819 124.304 255.851 122.22L256.436 123.002C256.595 123.211 256.798 123.376 257.027 123.497L259.784 124.876C259.943 124.959 260.089 125.06 260.223 125.187L261.938 126.903C262.319 127.284 262.866 127.462 263.399 127.373L267.44 126.699C267.529 126.687 267.625 126.674 267.714 126.674H271.494C271.672 126.674 271.856 126.642 272.028 126.585L275.967 125.27C276.488 125.098 277.066 125.187 277.505 125.518L279.709 127.17C280.002 127.386 280.351 127.506 280.713 127.506H282.67C283.598 127.506 284.348 128.256 284.348 129.184V130.022H255.794C255.794 129.527 255.794 129.038 255.794 128.536L255.8 128.542ZM284.36 131.706V136.179C284.36 136.541 284.475 136.897 284.697 137.183L286.54 139.642C286.756 139.934 286.876 140.284 286.876 140.652V144.801C286.876 145.017 286.914 145.227 286.997 145.424L287.804 147.432V159.504L287.003 162.306C286.921 162.592 286.914 162.89 286.991 163.176L287.804 166.436V166.938H257.738C256.633 156.136 255.921 144.35 255.819 131.706H284.36ZM316.097 166.938C316.078 166.721 316.021 166.512 315.926 166.315L314.871 164.199C314.674 163.799 314.642 163.341 314.782 162.916L315.182 161.715C315.322 161.295 315.627 160.946 316.021 160.743L318.181 159.663C317.971 162.128 317.736 164.549 317.489 166.925H316.097V166.938ZM335.997 117.074C335.717 116.794 335.285 116.724 334.936 116.902L332.337 118.198C332.229 118.255 332.115 118.293 331.994 118.325L329.186 119.031C328.944 119.088 328.69 119.094 328.449 119.05L325.793 118.516C325.113 118.382 324.624 117.785 324.624 117.086C324.624 116.775 324.522 116.464 324.332 116.216L322.108 113.249L320.945 111.501C320.805 107.924 320.615 104.423 320.386 101.005C321.428 102.276 322.527 103.604 322.953 104.023C323.55 104.62 325.088 110.605 326.003 114.469C326.187 115.231 326.86 115.765 327.642 115.765H327.775C327.915 115.765 328.048 115.746 328.182 115.714L331.155 114.97C331.276 114.939 331.39 114.901 331.498 114.843L336.365 112.41L338.882 110.733L344.308 106.857C344.594 106.653 344.81 106.361 344.924 106.024L345.502 104.284C345.559 104.112 345.591 103.934 345.591 103.75V103.038C345.591 102.593 345.413 102.168 345.102 101.85L345.032 101.78C344.848 101.596 344.625 101.456 344.377 101.374L342.903 100.884C342.503 100.751 342.236 100.382 342.236 99.9567C342.236 99.4166 341.798 98.9845 341.264 98.9845H340.419C339.974 98.9845 339.549 99.1624 339.231 99.4738L338.78 99.9249C338.329 100.376 337.668 100.528 337.064 100.332L336.08 100.001C335.724 99.8804 335.419 99.6517 335.215 99.3404L333.951 97.4406C333.887 97.3516 333.818 97.2627 333.741 97.1864L333.017 96.4621L331.829 95.274C331.518 94.9626 331.34 94.5306 331.34 94.0858V93.101H334.237C334.383 93.2853 334.561 93.4505 334.783 93.5648L335.292 93.819C335.451 93.9016 335.603 94.0032 335.73 94.1303L336.721 95.1215C337.033 95.4328 337.465 95.6107 337.909 95.6107H338.494C338.754 95.6107 339.009 95.6743 339.244 95.7886L342.02 97.1737C342.173 97.25 342.332 97.3008 342.497 97.3262L346.938 98.0696C347.167 98.1077 347.395 98.095 347.618 98.0442L348.939 97.7138C350.985 108.267 352.243 119.158 352.307 130.003H332.35L332.979 126.871C333.011 126.725 333.055 126.585 333.125 126.452L334.65 123.402C334.688 123.332 334.713 123.256 334.739 123.179L335.539 120.778L336.251 117.931C336.327 117.62 336.238 117.283 336.01 117.055L335.997 117.074ZM403.982 131.706C403.969 132.087 403.95 132.475 403.937 132.856C403.289 132.361 402.571 131.998 402.057 131.801C401.987 131.776 401.917 131.744 401.853 131.706H403.988H403.982ZM425.279 130.029L423.291 128.834C422.427 128.313 422.566 127.017 423.526 126.699C423.577 126.68 423.634 126.661 423.678 126.636L426.563 125.194C426.823 125.06 427.046 124.863 427.211 124.622L428.564 122.589C428.615 122.512 428.672 122.442 428.736 122.379C429.46 121.655 429.168 120.416 428.196 120.092L428.031 120.034C427.878 119.984 427.719 119.958 427.56 119.958H426.182C425.622 119.958 425.095 120.238 424.784 120.708L424.104 121.731C423.793 122.195 423.265 122.481 422.706 122.481H419.11C418.309 122.481 417.623 123.046 417.464 123.828L417.166 125.327C417.007 126.109 416.321 126.674 415.52 126.674H411.721C411.276 126.674 410.85 126.852 410.532 127.163L408.404 129.292C408.194 129.501 408.061 129.756 407.985 130.022H405.716C405.742 128.98 405.754 127.938 405.754 126.89C405.754 124.145 405.672 121.432 405.513 118.77L405.996 118.287L407.184 117.099C407.495 116.788 407.673 116.356 407.673 115.911V115.199C407.673 115.021 407.648 114.837 407.584 114.672L407.006 112.931C406.892 112.594 406.676 112.302 406.39 112.092C405.913 111.749 405.367 111.343 404.808 110.917C404.573 108.928 404.293 106.971 403.975 105.033L407.565 103.242C407.635 103.203 407.711 103.178 407.788 103.153L414.484 100.922C414.955 100.764 415.329 100.414 415.514 99.9567L416.905 96.4875L418.246 93.1328H433.774C437.459 103.572 439.658 114.862 439.658 126.909C439.658 127.957 439.639 129.006 439.601 130.041H425.286L425.279 130.029ZM418.57 36.0764C417.998 36.0764 416.568 35.6698 415.641 35.3775C415.361 35.2885 415.069 35.2695 414.783 35.3267L411.352 36.0129C411.136 36.0573 410.914 36.0573 410.691 36.0129L406.987 35.2758C406.879 35.2568 406.771 35.2441 406.657 35.2441H404.16C403.715 35.2441 403.289 35.0662 402.971 34.7548L402.902 34.6849C402.717 34.5007 402.495 34.3609 402.247 34.2783L400.513 33.7001C400.252 33.6112 399.966 33.6302 399.718 33.7573L398.956 34.1385C398.695 34.272 398.638 34.6151 398.848 34.8247C399.058 35.028 399 35.3775 398.74 35.5109L398.035 35.8604C397.755 36.0002 397.425 36.0002 397.139 35.8731C396.503 35.5872 395.601 35.2441 395.074 35.2441C395.036 35.2441 394.985 35.2441 394.94 35.2568C386.776 28.0644 378.757 22.4096 372.067 18.4703H389.254C397.952 22.346 408.988 28.4138 420.273 36.4259C419.593 36.2416 418.919 36.0828 418.563 36.0828L418.57 36.0764ZM393.079 35.8413C393.028 35.8667 392.977 35.8858 392.926 35.9112C392.691 36.0192 392.431 36.0828 392.17 36.0828H391.007C390.48 36.0828 390.048 35.6571 390.048 35.1297C390.048 34.704 389.762 34.3291 389.355 34.2084L384.679 32.8741C384.355 32.7788 384.012 32.7915 383.688 32.8932C382.76 33.1855 381.388 33.573 380.829 33.573C380.352 33.573 379.558 33.859 378.942 34.1195C378.535 34.2974 378.071 34.3291 377.652 34.1894L375.911 33.6048C375.835 33.5794 375.765 33.5476 375.689 33.5159L374.793 33.0647C374.392 32.8614 373.903 32.944 373.586 33.2617C373.389 33.4587 373.122 33.5667 372.848 33.5667H370.085C369.564 32.9631 369.043 32.3722 368.522 31.7877C368.572 31.7368 368.636 31.6987 368.699 31.6606L369.024 31.5017C369.468 31.2794 369.564 30.6821 369.214 30.3327C369.132 30.2501 369.036 30.1929 368.928 30.1547L366.577 29.3732L366.19 29.2462C362.054 24.8494 358.102 21.2341 354.632 18.4703H368.699C375.555 22.2507 384.203 28.1216 393.085 35.8477L393.079 35.8413ZM308.409 43.9105C308.13 43.7708 308.072 43.4022 308.288 43.1799C308.492 42.9765 308.46 42.6398 308.218 42.481L306.814 41.547C306.617 41.4135 306.713 41.1149 306.948 41.1149C306.986 41.1149 307.018 41.1213 307.056 41.1403C307.628 41.4199 308.809 41.9282 309.47 41.9536C309.712 42.8876 309.953 43.8406 310.194 44.8128L308.403 43.9169L308.409 43.9105ZM308.504 38.548L305.448 37.7856C305.372 37.7665 305.289 37.7538 305.207 37.7538H303.409C303.193 37.7538 303.078 37.4869 303.237 37.3344C303.39 37.182 303.282 36.9151 303.066 36.9151H302.894C302.843 36.9151 302.799 36.9024 302.754 36.8833L301.496 36.2543C301.261 36.1399 301.007 36.0764 300.747 36.0764H298.383C298.002 36.0764 297.64 36.2289 297.373 36.4958C297.106 36.7626 296.737 36.9151 296.362 36.9151H295.035C294.653 36.9151 294.291 37.0676 294.024 37.3344L293.935 37.4234C293.726 37.6331 293.44 37.7538 293.141 37.7538C292.9 37.7538 292.665 37.83 292.468 37.9762L289.628 40.1047C289.583 40.1364 289.539 40.1618 289.494 40.1873V27.3083L289.894 27.5116C290.129 27.626 290.384 27.6895 290.644 27.6895H296.28C296.661 27.6895 296.775 27.1812 296.439 27.0097C296.261 26.9207 296.191 26.7047 296.293 26.5331C296.636 25.9486 297.239 25.1671 297.798 25.1671C298.637 25.1671 298.898 24.0425 298.154 23.6676L298.053 23.6168C297.887 23.5342 297.703 23.5088 297.525 23.5469L293.605 24.3284L290.428 25.1226C290.307 25.1544 290.187 25.1671 290.066 25.1671H289.608C289.57 25.1671 289.532 25.1734 289.494 25.1798V18.4576H301.674C303.618 22.7527 306.096 29.5511 308.587 38.5671C308.568 38.5607 308.543 38.548 308.523 38.5417L308.504 38.548ZM287.798 40.8036L287.671 40.848C287.169 41.0132 286.775 41.4072 286.61 41.9091L286.216 43.0846C286.101 43.4404 285.866 43.7453 285.555 43.9487L283.757 45.1432C283.598 45.2512 283.42 45.3274 283.236 45.3719L281.431 45.823C280.688 46.0073 280.16 46.6808 280.16 47.4496V52.8502H274.29C274.29 52.7486 274.302 52.6405 274.328 52.5389C274.499 51.7701 274.404 50.8107 273.699 50.4549C273.54 50.3723 273.362 50.3341 273.184 50.3341H272.472C272.028 50.3341 271.596 50.5057 271.303 50.8424C270.744 51.4715 270.103 52.3419 270.103 52.8502H263.52C266.989 36.7181 270.922 24.9129 273.737 18.4576H287.804V40.7972L287.798 40.8036ZM261.442 54.534C259.231 65.1701 257.243 77.5662 255.896 91.4427H227.272C230.036 77.9601 233.924 65.4687 238.124 54.534H261.442ZM223.848 91.4427H215.88C218.733 78.2587 222.672 65.7165 226.916 54.534H234.541C230.385 65.5259 226.567 78.0046 223.854 91.4427H223.848ZM220.156 63.4673L219.832 62.3363C219.781 62.1711 219.711 62.0123 219.616 61.8661L218.244 59.8075C218.136 59.6487 218.059 59.4708 218.015 59.2865L217.316 56.4972C217.271 56.313 217.189 56.1351 217.087 55.9762L216.128 54.5403H223.326C222.246 57.4312 221.185 60.4175 220.156 63.4736V63.4673ZM215.219 25.3513L214.247 25.8406C214.012 25.9549 213.758 26.0185 213.497 26.0185H206.483C206.388 26.0185 206.299 26.0248 206.21 26.0439L201.451 26.8381C201.362 26.8508 201.266 26.8635 201.177 26.8635H200.034C199.773 26.8635 199.519 26.9271 199.284 27.0414L196.927 28.2232C196.571 28.4011 196.431 28.8332 196.603 29.1826C196.844 29.6592 196.495 30.2183 195.961 30.2183H193.35C193.076 30.2183 192.803 30.1357 192.575 29.9832L192.187 29.729C198.185 25.0019 203.84 21.2214 208.624 18.4766H222.748C220.429 20.3891 217.894 22.6955 215.226 25.364L215.219 25.3513ZM188.915 30.1865C188.464 30.0721 188.203 29.5639 188.426 29.1254C188.597 28.7887 188.483 28.3757 188.171 28.166L186.627 27.1367C186.354 26.9525 186.03 26.8572 185.7 26.8572H183.247C182.987 26.8572 182.733 26.9207 182.498 27.0351L178.171 29.1953C177.936 29.3097 177.681 29.3732 177.421 29.3732H174.574C173.984 29.3732 173.437 29.6846 173.139 30.1865L171.34 33.1791C171.188 33.4333 170.972 33.6366 170.718 33.7827L163.938 37.5441C163.691 37.6839 163.411 37.7538 163.125 37.7538H159.764C159.503 37.7538 159.249 37.8173 159.014 37.9317L156.568 39.158C156.212 39.3359 155.799 39.3803 155.412 39.285L154.306 39.0118C166.537 29.7926 178.66 22.8226 188.057 18.4703H205.326C200.421 21.4629 194.798 25.3958 188.915 30.1929V30.1865ZM140.652 52.6024C140.804 52.7549 141.04 52.793 141.237 52.6977C141.484 52.577 141.732 52.6723 141.872 52.8629H137.914C138.428 52.3737 138.943 51.8908 139.457 51.4143L140.652 52.6088V52.6024ZM133.485 57.2152C134.368 56.313 135.27 55.4235 136.173 54.5403H141.332L141.033 55.1312C140.951 55.29 140.912 55.4679 140.912 55.6522V61.1609C140.912 62.2728 142.151 62.9399 143.079 62.3173C143.308 62.1648 143.651 62.0567 143.753 62.3109C143.848 62.5396 143.816 62.9844 143.429 63.7595C142.831 64.9604 141.294 66.6886 140.379 67.6417C140.182 67.845 140.036 68.0928 139.953 68.3723L138.562 73.2329C138.454 73.6142 138.212 73.9446 137.882 74.1669L136.42 75.1391C136.071 75.3678 135.823 75.7236 135.721 76.1302L135.092 78.659C135.061 78.7924 135.042 78.9259 135.042 79.0656V83.6213C135.042 83.7992 135.073 83.9834 135.131 84.155L135.702 85.8641C135.823 86.2199 136.052 86.5249 136.363 86.7282L137.653 87.586C138.117 87.8973 138.403 88.4183 138.403 88.9838V91.3855C138.403 91.3855 138.396 91.4236 138.396 91.4427H108.883C114.958 78.7035 123.694 67.2223 133.498 57.2089L133.485 57.2152ZM144.127 168.621C149.052 180.452 155.806 191.094 163.29 200.377C164.713 202.143 166.162 203.859 167.63 205.524H140.093C137.85 203.51 135.639 201.419 133.485 199.253C124.507 190.243 116.419 179.982 110.459 168.615H144.134L144.127 168.621ZM169.129 207.207C181.157 220.48 194.284 230.456 204.5 236.568H187.091C174.6 230.894 157.623 220.881 141.98 207.207H169.129ZM171.41 207.207H196.025C204.913 220.493 214.609 230.468 222.138 236.568H207.842C197.753 230.888 184.041 220.874 171.41 207.207ZM169.879 205.53C168.087 203.535 166.321 201.47 164.593 199.329C157.324 190.313 150.773 180.026 145.951 168.621H177.567C181.894 182.695 188.127 195.084 194.919 205.53H169.879ZM179.327 168.621H189.36L188.851 170.661C188.775 170.972 188.788 171.296 188.889 171.601L189.487 173.393C189.544 173.564 189.626 173.723 189.734 173.869L191.926 176.792C192.034 176.938 192.117 177.097 192.174 177.269L193.572 181.462C193.699 181.837 193.686 182.25 193.54 182.619L192.212 185.941C192.136 186.138 192.092 186.348 192.092 186.564V188.902C192.092 189.347 192.27 189.773 192.581 190.09L194.608 192.117L196.393 193.903C196.844 194.354 197.003 195.015 196.8 195.618L196.374 196.895C196.317 197.067 196.285 197.245 196.285 197.423V200.949C196.285 201.209 196.349 201.464 196.463 201.699L198.382 205.536H196.933C190.071 195.148 183.73 182.752 179.333 168.628L179.327 168.621ZM221.827 166.633L223.072 165.635C223.155 166.073 223.238 166.505 223.32 166.944H221.535C221.617 166.83 221.713 166.722 221.827 166.633ZM225.963 162.769L227.183 159.713C227.266 159.504 227.393 159.313 227.552 159.148L228.797 157.903C229.388 157.312 229.451 156.378 228.95 155.711L227.958 154.389C227.564 153.862 227.514 153.144 227.831 152.565L231.288 146.345C231.427 146.097 231.497 145.818 231.497 145.532V142.673C231.497 142.114 231.218 141.586 230.748 141.275L224.877 137.361C224.381 137.031 223.752 137.012 223.225 137.259C223.161 135.423 223.123 133.568 223.11 131.706H254.117C254.218 144.344 254.924 156.123 256.023 166.938H226.732C226.459 165.559 226.192 164.167 225.944 162.763L225.963 162.769ZM256.22 168.621C257.719 182.701 259.879 195.097 262.237 205.53H238.671C234.172 194.932 229.985 182.46 227.094 168.621H256.22ZM257.91 168.621H287.804V205.53H263.965C261.601 195.129 259.428 182.739 257.916 168.621H257.91ZM287.804 207.207V236.568H273.534C270.967 230.786 267.523 220.779 264.352 207.207H287.81H287.804ZM289.481 207.207H310.83C307.704 220.658 304.343 230.684 301.827 236.568H289.481V207.207ZM289.481 205.53V170.152L291.241 171.474C291.661 171.792 291.915 172.287 291.915 172.815V173.984C291.915 174.314 292.01 174.638 292.194 174.918L293.389 176.71C293.522 176.906 293.611 177.129 293.649 177.364L294.291 181.202C294.38 181.729 294.717 182.186 295.193 182.428L295.549 182.606C295.905 182.784 296.318 182.828 296.706 182.733L299.26 182.097C299.393 182.066 299.527 182.047 299.666 182.047H303.097C303.46 182.047 303.815 181.932 304.101 181.71L306.916 179.6C306.98 179.55 307.037 179.499 307.094 179.442L310.245 176.29C310.322 176.214 310.391 176.125 310.455 176.036L312.037 173.66L313.467 170.807C313.632 170.483 313.892 170.222 314.216 170.057L314.776 169.778C315.176 169.581 315.474 169.231 315.614 168.806L315.671 168.628H317.298C315.748 182.688 313.556 195.097 311.198 205.536H289.469L289.481 205.53ZM319.001 168.621H328.036C328.15 168.875 328.264 169.13 328.379 169.365C328.652 169.936 329.23 170.299 329.866 170.299H330.507C331.435 170.299 332.185 169.549 332.185 168.621H347.802C344.67 182.161 340.235 194.703 335.527 205.53H312.933C315.284 195.053 317.463 182.65 319.001 168.621ZM332.178 166.944V166.315C332.178 166.175 332.197 166.042 332.229 165.908C332.541 164.726 333.22 162.547 333.856 161.912C334.694 161.073 335.533 158.557 336.372 158.557C336.829 158.557 337.318 157.769 337.668 157.007C337.935 156.428 337.763 155.761 337.319 155.31L337.23 155.221C336.721 154.713 336.594 153.931 336.918 153.283L337.071 152.972C337.166 152.781 337.217 152.578 337.217 152.368C337.217 151.619 336.607 151.009 335.857 151.009H334.898C334.262 151.009 333.684 151.371 333.398 151.936L333.22 152.286C333.093 152.546 332.896 152.769 332.649 152.934L330.641 154.275C330.545 154.338 330.463 154.408 330.387 154.484L329.319 155.552C329.008 155.869 328.83 156.295 328.83 156.74V159.262C328.83 159.358 328.824 159.446 328.805 159.535L328.074 163.9C328.017 164.244 327.845 164.561 327.642 164.841C327.394 165.19 327.146 165.66 327.146 166.105C327.146 166.283 327.229 166.582 327.35 166.944H319.179C319.458 164.275 319.712 161.55 319.947 158.773C320.278 158.544 320.526 158.208 320.627 157.807L321.282 155.202L322.68 151.708C322.857 151.263 322.838 150.761 322.622 150.335L321.364 147.819C321.307 147.711 321.269 147.597 321.237 147.476L320.805 145.748C320.888 144.09 320.958 142.419 321.015 140.728C321.123 140.633 321.237 140.551 321.371 140.481L322.87 139.731C323.436 139.445 323.798 138.867 323.798 138.231V137.965C323.798 137.24 324.262 136.599 324.948 136.37L326.06 136.001C326.231 135.944 326.409 135.912 326.593 135.912H327.801C328.436 135.912 329.014 135.55 329.3 134.985L330.393 132.799C330.476 132.64 330.577 132.488 330.704 132.361L331.352 131.713H352.32C352.25 143.835 350.68 155.717 348.19 166.944H332.191H332.178ZM355.662 131.713H364.042C363.979 143.982 362.524 155.825 360.198 166.944H351.614C354.061 155.711 355.592 143.835 355.662 131.713ZM367.403 131.713H396.522C397.584 133.161 398.454 134.426 398.454 135.067C398.454 136.02 400.976 138.702 403.34 140.983C402.374 150.138 400.519 158.811 398.028 166.944H363.636C365.923 155.812 367.346 143.975 367.41 131.713H367.403ZM397.501 168.621C392.996 182.688 386.617 195.097 379.761 205.53H351.627C356.176 194.671 360.363 182.199 363.28 168.621H397.495H397.501ZM399.261 168.621H411.873V170.025C411.873 170.203 411.905 170.388 411.962 170.559L412.629 172.561C412.686 172.732 412.718 172.91 412.718 173.094V177.383C412.718 177.688 412.616 177.993 412.432 178.234C411.651 179.276 412.572 180.738 413.849 180.484L414.395 180.376L420.12 178.743C420.222 178.717 420.317 178.679 420.412 178.628L421.747 177.961C421.88 177.898 422.02 177.847 422.166 177.815L426.137 177.021L426.741 176.9C422.662 184.626 417.852 191.787 412.686 198.312C410.704 200.816 408.664 203.224 406.599 205.543H381.769C388.555 195.059 394.839 182.657 399.267 168.634L399.261 168.621ZM405.075 207.207C392.634 220.753 379.253 230.786 369.367 236.568H355.033C362.409 230.386 371.889 220.391 380.664 207.207H405.075ZM407.343 207.207H434.314C418.913 220.753 402.342 230.786 390.105 236.568H372.626C382.633 230.373 395.474 220.379 407.349 207.207H407.343ZM408.836 205.53C410.583 203.535 412.311 201.476 414.002 199.341C419.485 192.41 424.574 184.76 428.844 176.468L429.594 176.316C430.064 176.22 430.547 176.335 430.928 176.621L433.171 178.304C433.501 178.552 433.73 178.914 433.812 179.315L434.117 180.852C434.289 181.723 435.363 182.047 435.985 181.418L436.799 180.604C437.199 180.204 437.879 180.49 437.879 181.049C437.879 181.144 437.853 181.246 437.809 181.335L437.504 181.945C437.224 182.504 437.332 183.178 437.777 183.616C437.847 183.686 437.904 183.756 437.955 183.838L439.092 185.541C439.378 185.973 439.867 186.234 440.388 186.234H441.037C441.901 186.234 442.46 187.142 442.072 187.911L441.354 189.347C441.272 189.506 441.17 189.652 441.037 189.785L439.899 190.923C439.677 191.145 439.55 191.45 439.55 191.761C439.55 192.416 440.084 192.95 440.738 192.95H441.697C442.422 192.95 443.063 192.486 443.292 191.8L443.75 190.434L444.366 188.578C444.506 188.159 444.811 187.809 445.205 187.606L447.314 186.551C447.714 186.354 448.013 186.005 448.153 185.579L448.604 184.22C448.712 183.896 448.915 183.61 449.188 183.406L451.857 181.405C452.035 181.272 452.238 181.176 452.454 181.119L454.329 180.649C454.919 180.503 455.224 179.842 454.951 179.296C454.767 178.927 454.837 178.482 455.129 178.196L457.855 175.471C457.95 175.375 458.039 175.267 458.109 175.147L460.415 171.309C460.485 171.195 460.568 171.08 460.67 170.985L461.013 170.642C461.559 170.089 461.642 169.257 461.273 168.615H466.057C460.174 179.518 452.397 189.442 443.794 198.23C441.316 200.758 438.775 203.192 436.195 205.524H408.836V205.53ZM459.068 166.944C458.935 166.772 458.846 166.563 458.846 166.334C458.846 166.181 458.808 166.029 458.751 165.889C458.497 165.298 458.255 164.421 458.846 164.421H458.7C458.255 164.421 457.829 164.244 457.512 163.932L456.603 163.024C456.419 162.839 456.279 162.617 456.197 162.369L455.606 160.603C455.523 160.355 455.383 160.133 455.199 159.948L454.29 159.04C454.024 158.773 454.024 158.335 454.29 158.061C454.5 157.852 454.551 157.534 454.417 157.267L453.979 156.39C453.865 156.155 453.801 155.901 453.801 155.641V155.437C453.801 155.278 453.839 155.126 453.909 154.986L453.947 154.916C454.265 154.275 453.801 153.525 453.09 153.525C452.562 153.525 452.13 153.093 452.13 152.565V151.517C452.13 151.187 452.035 150.863 451.851 150.589L450.618 148.74C450.516 148.588 450.345 148.499 450.16 148.499C449.862 148.499 449.614 148.74 449.614 149.045V150.621C449.614 150.882 449.551 151.136 449.436 151.371L448.845 152.559C448.801 152.648 448.75 152.737 448.686 152.813L446.488 155.749C446.348 155.939 446.126 156.047 445.884 156.047C445.599 156.047 445.338 155.888 445.211 155.634L445.001 155.209C444.741 154.694 444.22 154.37 443.642 154.37H443.495C443.114 154.37 442.752 154.217 442.485 153.951C442.218 153.684 442.066 153.315 442.066 152.94V152.432C442.066 152.076 442.269 151.752 442.581 151.593L442.924 151.422C443.324 151.218 443.413 150.685 443.095 150.367C442.974 150.24 442.905 150.075 442.905 149.903V149.757C442.905 149.49 442.797 149.23 442.606 149.039L442.593 149.026C442.276 148.709 441.786 148.632 441.386 148.829L440.738 149.153C440.503 149.268 440.249 149.331 439.988 149.331H439.346C439.15 149.331 438.978 149.236 438.864 149.096C440.115 143.492 440.929 137.698 441.214 131.713H476.992C476.23 144.312 472.532 156.104 466.934 166.944H459.062H459.068ZM478.676 131.713H509.924C509.434 144.217 506.778 156.187 502.299 167.274V166.944H468.828C474.311 156.104 477.933 144.318 478.676 131.713ZM479.502 52.8629H442.803C441.983 52.0687 441.157 51.2936 440.331 50.5184C440.363 50.4676 440.388 50.4167 440.388 50.3405C440.388 50.0355 440.503 49.7178 440.662 49.4319C440.916 48.9681 441.532 48.9681 441.907 49.343C442.015 49.451 442.142 49.5272 442.282 49.5717L442.994 49.8068C443.775 50.0673 444.588 49.4827 444.588 48.6568C444.588 47.7291 445.338 46.9794 446.266 46.9794H446.831C447.009 46.9794 447.193 47.0112 447.365 47.0683L449.195 47.6783C449.455 47.7672 449.748 47.6974 449.944 47.5004C450.23 47.2145 450.23 46.7506 449.944 46.4647L449.697 46.2169C449.646 46.1661 449.589 46.1216 449.531 46.0835L447.104 44.4633C446.266 43.9042 444.588 42.6207 444.588 41.9472C444.588 41.2737 445.147 41.6677 445.427 41.9472L445.776 42.2967C446.094 42.6144 446.52 42.7859 446.965 42.7859H448.089C448.534 42.7859 448.96 42.9638 449.277 43.2752L450.186 44.1837C450.37 44.368 450.593 44.5078 450.84 44.5904L452.308 45.0796C452.721 45.2194 453.179 45.1114 453.484 44.8001C453.7 44.584 453.82 44.2918 453.82 43.9868V43.6818C453.82 43.1227 453.541 42.5953 453.07 42.284L451.488 41.2293C451.368 41.1467 451.228 41.0831 451.088 41.0323L449.042 40.3525C448.871 40.2953 448.693 40.2635 448.509 40.2635H447.797C447.352 40.2635 446.926 40.0856 446.609 39.7743L445.916 39.0817C445.605 38.7704 445.173 38.5925 444.728 38.5925H442.466C442.206 38.5925 441.951 38.5289 441.716 38.4146L440.744 37.9317C440.509 37.8173 440.255 37.7538 439.995 37.7538H438.273C438.012 37.7538 437.758 37.6966 437.523 37.5759L436.551 37.093C436.316 36.9786 436.062 36.9151 435.801 36.9151H432.955C432.878 36.9151 432.802 36.9087 432.732 36.8897L430.591 36.356C430.28 36.2797 430.064 36.6546 430.292 36.8833C430.318 36.9087 430.337 36.9342 430.35 36.9659L430.871 38.0016C431.01 38.2748 430.807 38.5988 430.502 38.5988C430.394 38.5988 430.286 38.5544 430.21 38.4781L429.911 38.1795C429.644 37.9126 429.282 37.7601 428.901 37.7601H426.137C425.87 37.7601 425.324 37.6712 424.695 37.5441C413.531 29.2525 402.406 22.8162 393.282 18.4639H397.514C429.879 18.4639 459.005 31.6987 479.508 52.8566L479.502 52.8629ZM351.894 18.4703C355.204 20.9546 359.074 24.3347 363.184 28.5345H362.378C361.914 28.5345 361.539 28.1597 361.539 27.6959C361.539 27.232 361.164 26.8572 360.7 26.8572H358.578C358.318 26.8572 358.063 26.7936 357.828 26.6793L355.179 25.3577C354.944 25.2433 354.69 25.1798 354.429 25.1798H350.191C349.931 25.1798 349.676 25.1162 349.441 25.0019L347.866 24.214C347.11 23.8392 346.201 24.214 345.934 25.0146C345.737 25.6055 345.96 26.2599 346.481 26.603L347.694 27.4099C347.967 27.5942 348.291 27.6895 348.622 27.6895H349.651C349.74 27.6895 349.835 27.6959 349.924 27.7149L354.69 28.5091C354.779 28.5218 354.861 28.5473 354.944 28.5727L355.954 28.9094C356.685 29.1509 357.028 29.9832 356.685 30.6694C356.564 30.9172 356.367 31.1142 356.119 31.2349L355.566 31.5081C355.096 31.7432 354.537 31.7432 354.067 31.5081L353.495 31.2222C353.26 31.1078 353.006 31.0443 352.745 31.0443H348.38C347.974 31.0443 347.764 31.5399 348.056 31.8321C348.088 31.8639 348.133 31.8957 348.177 31.9211L348.971 32.315C349.371 32.5183 349.46 33.052 349.143 33.3697C349.016 33.4904 348.85 33.5603 348.679 33.5603H345.242C344.975 33.5603 344.752 33.7764 344.752 34.0496C344.752 34.2592 344.886 34.4435 345.083 34.5134L346.57 35.009C346.887 35.117 346.982 35.5236 346.747 35.7587C346.57 35.9366 346.284 35.9366 346.106 35.7587L345.94 35.5935C345.731 35.3839 345.413 35.333 345.146 35.4665L344.269 35.9049C344.238 35.9239 344.2 35.9303 344.161 35.943C340.902 29.0937 337.712 23.1784 334.891 18.4639H351.888L351.894 18.4703ZM329.516 39.0944L329.179 39.2596C328.944 39.374 328.69 39.4375 328.43 39.4375H326.708C326.447 39.4375 326.193 39.374 325.958 39.2596L325.507 39.0309C324.967 38.764 324.325 38.8022 323.823 39.1389L322.254 40.1873C322.165 40.2508 322.076 40.3207 322 40.3969L320.958 41.4389C320.64 41.7566 320.17 41.8646 319.744 41.7249L318.62 41.35C318.302 41.242 318.207 40.8353 318.442 40.6003C318.62 40.4224 318.62 40.1364 318.442 39.9585L318.162 39.679C318.01 39.5265 317.8 39.4375 317.578 39.4375C316.961 39.4375 316.567 40.0856 316.84 40.632L316.917 40.7845C317.285 41.5279 316.574 42.3475 315.792 42.0807L315.563 42.0044C315.462 41.9727 315.347 41.9536 315.239 41.9536H314.966C314.706 41.9536 314.445 42.0108 314.223 42.1442C313.645 42.4937 312.888 43.0782 312.888 43.631C312.888 44.0313 312.685 44.2536 312.469 44.368C312.279 44.4633 312.075 44.5396 311.904 44.6539C311.637 43.5801 311.37 42.5318 311.103 41.5088C311.167 41.3881 311.211 41.261 311.211 41.1149V40.1174C311.211 39.7489 310.919 39.4566 310.557 39.4439C308.053 30.1738 305.531 23.0831 303.504 18.4703H318.581C321.72 23.5723 325.564 30.6249 329.516 39.0944ZM231.459 50.0165C231.504 50.2325 231.586 50.4358 231.707 50.6201L232.298 51.5032C232.8 52.2593 233.816 52.4753 234.585 51.9988L235.837 51.2173C235.621 51.7637 235.405 52.3101 235.195 52.8629H227.571C228.556 50.3214 229.547 47.8562 230.551 45.4672L231.459 50.0165ZM236.892 24.0171L234.268 23.5405C234.115 23.5151 233.956 23.5088 233.804 23.5215L225.652 24.3347H218.676C221.096 22.0411 223.371 20.0714 225.436 18.4639H239.91C238.95 20.1667 237.94 22.0283 236.898 24.0171H236.892ZM179.619 18.4639H184.188C174.93 23.0386 163.589 29.7989 152.235 38.4845L146.161 36.9659C146.027 36.9342 145.887 36.9151 145.754 36.9151H133.542C133.434 36.9151 133.32 36.9278 133.212 36.9469L130.53 37.4806C129.749 37.6394 129.184 38.3256 129.184 39.1262V40.2699C129.184 41.1975 128.434 41.9472 127.506 41.9472H126.102C125.924 41.9472 125.74 41.9155 125.568 41.8583L123.872 41.2928C123.51 41.1721 123.109 41.1784 122.754 41.3119L122.055 41.5724C120.612 42.1124 120.898 44.2282 122.423 44.4506C122.455 44.4506 122.487 44.457 122.518 44.457C123.255 44.457 123.465 45.4672 122.785 45.7595L119.952 46.973L117.524 48.1866C116.953 48.4725 116.597 49.0507 116.597 49.6861V51.6875C116.597 51.8654 116.743 52.0052 116.921 52.0052C117.258 52.0052 117.366 52.4626 117.067 52.6151L116.603 52.8439H97.6183C118.128 31.686 147.253 18.4512 179.613 18.4512L179.619 18.4639ZM72.8133 93.1137H106.253C101.38 104.061 98.4506 115.911 98.4506 128.536C98.4506 129.031 98.4633 129.527 98.476 130.022H67.1268C67.1077 129.184 67.095 128.345 67.095 127.506C67.095 115.491 69.1091 103.934 72.8133 93.1137ZM75.3739 168.609H108.559C114.659 180.477 123.027 191.139 132.29 200.434C134.025 202.175 135.798 203.872 137.589 205.517H100.998C90.0319 195.129 81.2447 182.593 75.3739 168.609ZM102.816 207.195H139.445C154.306 220.461 170.527 230.437 183.146 236.555H179.6C149.884 236.555 122.9 225.398 102.809 207.195H102.816ZM239.522 236.555H224.845C217.411 230.856 207.334 220.849 198.051 207.195H199.799L203.484 210.27C203.706 210.454 203.973 210.581 204.259 210.632L206.667 211.07C208.37 211.382 209.367 209.221 208.027 208.122L206.902 207.201H224.54C229.604 219.286 235.024 229.375 239.522 236.562V236.555ZM227.475 205.517C223.93 197.016 220.575 187.524 217.85 177.358L217.964 177.186C218.047 177.059 218.11 176.926 218.161 176.786L220.887 168.609H223.67C226.497 182.377 230.595 194.837 235.036 205.517H227.482H227.475ZM239.389 207.195H262.618C265.712 220.537 269.092 230.526 271.691 236.555H255.807C251.257 230.487 245.113 220.36 239.389 207.195ZM318.689 236.555H303.631C306.179 230.443 309.483 220.436 312.533 207.195H334.771C329.122 219.902 323.175 230.106 318.683 236.555H318.689ZM339.167 205.517C343.818 194.627 348.164 182.097 351.227 168.609H359.836C356.856 182.237 352.58 194.729 347.974 205.517H339.167ZM350.909 207.195H378.63C369.494 220.722 359.658 230.754 352.37 236.555H335.304C340.019 229.464 345.674 219.407 350.915 207.195H350.909ZM393.917 236.555C406.288 230.36 422.153 220.366 436.818 207.195H474.279C454.189 225.398 427.205 236.555 397.488 236.555H393.911H393.917ZM476.09 205.517H463.44L464.558 204.774C464.653 204.71 464.736 204.64 464.812 204.564L468.053 201.324L472.246 197.13L474.571 194.805C474.699 194.678 474.807 194.532 474.883 194.367L475.188 193.763C475.893 192.352 474.444 190.84 473.008 191.482L469.73 192.937L465.841 194.233C465.155 194.462 464.698 195.104 464.698 195.828V198.369C464.698 199.672 463.275 200.479 462.156 199.805L461.368 199.329C460.835 199.011 460.174 199.011 459.64 199.329L457.124 200.841C456.616 201.146 456.311 201.692 456.311 202.277V203.414C456.311 204.164 456.806 204.825 457.524 205.028L459.246 205.517H438.66C440.801 203.541 442.911 201.502 444.976 199.399C453.858 190.326 461.921 180.007 467.945 168.609H501.721C495.844 182.593 487.063 195.129 476.096 205.517H476.09Z" fill="black"/>
<path d="M255.756 41.7884C255.807 41.89 255.871 41.979 255.953 42.0616L257.021 43.129C257.332 43.4404 257.764 43.6183 258.209 43.6183H260.172C260.617 43.6183 261.043 43.4404 261.36 43.129L263.038 41.4516C263.26 41.2293 263.387 40.9243 263.387 40.6129C263.387 39.9585 262.853 39.4248 262.199 39.4248H261.036C260.928 39.4248 260.814 39.4375 260.706 39.4566L256.767 40.2444C256.703 40.2571 256.64 40.2635 256.576 40.2635C255.852 40.2635 255.375 41.0259 255.699 41.6804L255.756 41.7884Z" fill="black"/>
<path d="M464.063 138.536C463.948 138.174 463.866 137.825 463.866 137.571C463.866 137.043 463.523 137.52 463.237 138.015C463.09 138.27 462.9 138.492 462.658 138.657L460.937 139.807C460.663 139.991 460.339 140.087 460.009 140.087H456.324C455.65 140.087 454.367 138.968 453.808 138.409L453.249 137.85C453.064 137.666 452.842 137.526 452.594 137.437C451.667 137.1 450.199 136.471 449.614 135.893C448.941 135.22 447.657 134.495 447.098 134.216L446.501 133.917C445.853 133.593 445.078 133.72 444.563 134.229L443.985 134.807C443.826 134.966 443.635 135.093 443.419 135.175L442.695 135.468C441.475 135.957 441.405 137.653 442.581 138.244L442.701 138.301C442.835 138.365 442.981 138.403 443.127 138.403H444.233C444.671 138.403 444.887 138.93 444.582 139.242L444.252 139.572C444.067 139.756 444.195 140.08 444.461 140.08C444.538 140.08 444.614 140.112 444.671 140.169L446.38 141.878C446.749 142.247 446.692 142.87 446.253 143.162C445.637 143.575 445.827 144.528 446.552 144.674L448.159 144.998C448.553 145.074 448.96 144.998 449.297 144.776L450.866 143.727C451.139 143.543 451.463 143.448 451.8 143.448H453.973C454.621 143.448 455.002 144.166 454.646 144.706C454.291 145.246 454.672 145.964 455.32 145.964H457.309C457.753 145.964 458.179 146.142 458.497 146.453L459.526 147.482C459.628 147.584 459.767 147.641 459.907 147.641C460.479 147.641 460.657 146.872 460.149 146.618L459.272 146.18C459.011 146.046 458.846 145.78 458.846 145.487V145.456C458.846 144.719 459.755 144.356 460.276 144.884C460.435 145.043 460.651 145.132 460.873 145.132H461.019C461.674 145.132 462.207 144.591 462.207 143.937C462.207 143.626 462.087 143.327 461.864 143.111C461.248 142.495 461.496 141.453 462.322 141.18L462.938 140.97C463.008 140.944 463.078 140.919 463.141 140.887L463.218 140.849C464.044 140.436 464.361 139.432 464.075 138.549L464.063 138.536Z" fill="black"/>
<path d="M54.5763 131.228C54.5763 134.258 54.4354 137.077 54.1535 139.684C53.8717 142.221 52.9908 144.44 51.511 146.343C50.1016 148.246 47.7762 149.726 44.5347 150.783C41.3636 151.84 36.8537 152.368 31.0049 152.368C26.354 152.368 22.5487 152.051 19.5891 151.417C16.6999 150.712 14.4449 149.726 12.8242 148.457C11.2739 147.189 10.1464 145.709 9.44171 144.018C8.73703 142.326 8.27899 140.459 8.06758 138.415C7.92665 136.301 7.85618 134.117 7.85618 131.862V107.656C7.85618 106.529 7.89141 105.648 7.96188 105.014C8.03235 104.379 8.31422 103.957 8.8075 103.745C9.30077 103.534 10.0407 103.428 11.0272 103.428H15.9952V135.456C15.9952 138.627 16.4885 141.093 17.475 142.855C18.5321 144.546 20.1528 145.744 22.3373 146.449C24.5923 147.153 27.4815 147.506 31.0049 147.506C36.5013 147.506 40.4475 146.59 42.8435 144.758C45.3098 142.855 46.543 139.754 46.543 135.456V103.428H51.2996C52.3566 103.428 53.1318 103.534 53.625 103.745C54.1183 103.957 54.4002 104.379 54.4706 105.014C54.5411 105.648 54.5763 106.529 54.5763 107.656V131.228ZM76.9736 103.428V147.4H109.424V152.051H68.9402V106.916C68.9402 106.141 68.9755 105.507 69.0459 105.014C69.1164 104.52 69.363 104.133 69.7858 103.851C70.2086 103.569 70.8781 103.428 71.7942 103.428H76.9736ZM108.378 103.428H156.472V108.185H136.494V148.563C136.494 149.902 136.318 150.818 135.966 151.311C135.684 151.804 134.909 152.051 133.64 152.051H128.461V108.185H108.378V103.428ZM194.95 132.073C194.95 132.073 193.963 132.073 191.99 132.073C190.017 132.073 187.375 132.073 184.063 132.073C180.751 132.073 177.086 132.109 173.07 132.179V152.051H164.931V108.925C164.931 106.881 165.353 105.472 166.199 104.697C167.115 103.921 168.595 103.499 170.638 103.428C171.696 103.358 173.07 103.322 174.761 103.322C176.523 103.322 178.46 103.322 180.574 103.322C182.688 103.252 184.838 103.217 187.022 103.217C189.277 103.217 191.427 103.217 193.47 103.217C195.584 103.217 197.452 103.252 199.072 103.322C200.693 103.393 201.961 103.463 202.878 103.534C206.542 103.886 209.22 105.119 210.911 107.233C212.602 109.277 213.448 112.342 213.448 116.429C213.448 119.671 212.99 122.243 212.074 124.146C211.228 126.048 209.924 127.458 208.163 128.374C207.951 128.585 207.599 128.761 207.106 128.902C206.683 128.973 206.225 129.008 205.731 129.008V129.219C206.013 129.219 206.33 129.219 206.683 129.219C207.035 129.219 207.317 129.219 207.528 129.219C210.206 129.713 211.827 130.805 212.391 132.496C212.954 134.117 213.236 135.773 213.236 137.464V149.514C213.236 150.219 213.307 150.818 213.448 151.311C213.589 151.734 213.694 151.98 213.765 152.051H208.057C207.07 152.051 206.295 151.875 205.731 151.522C205.168 151.17 204.886 150.325 204.886 148.986V137.781C204.886 135.597 204.393 134.117 203.406 133.342C202.49 132.496 200.834 132.073 198.438 132.073H194.95ZM173.07 127.634C174.056 127.634 175.606 127.669 177.721 127.74C179.835 127.74 182.125 127.74 184.591 127.74C187.128 127.74 189.453 127.74 191.567 127.74C193.681 127.74 195.232 127.74 196.218 127.74C198.544 127.74 200.587 127.035 202.349 125.626C204.181 124.146 205.097 121.433 205.097 117.486C205.097 114.809 204.569 112.695 203.512 111.144C202.525 109.524 200.904 108.572 198.649 108.29C197.17 108.079 195.337 107.973 193.153 107.973C190.968 107.903 188.713 107.903 186.388 107.973C184.063 107.973 181.913 108.009 179.94 108.079C177.967 108.079 176.487 108.079 175.501 108.079C175.289 108.079 174.831 108.22 174.127 108.502C173.422 108.713 173.07 109.418 173.07 110.616V127.634ZM219.439 152.051L233.497 110.51C234.343 108.114 235.505 106.282 236.985 105.014C238.465 103.675 241.002 103.005 244.596 103.005C247.837 103.005 250.233 103.604 251.784 104.802C253.334 106 254.567 107.903 255.483 110.51L269.859 152.051H261.085L256.54 138.627H230.115L225.781 152.051H219.439ZM231.489 134.927H255.06L248.084 113.681C247.732 112.624 247.274 111.708 246.71 110.933C246.146 110.087 245.019 109.665 243.327 109.665C241.425 109.665 240.156 110.087 239.522 110.933C238.958 111.779 238.536 112.695 238.254 113.681L231.489 134.927ZM288.253 152.051C286.28 152.051 284.624 151.875 283.285 151.522C281.946 151.1 280.924 150.289 280.22 149.091C279.515 147.823 278.951 145.955 278.529 143.489L272.715 103.428H280.326L285.505 140.635C285.857 142.538 286.315 143.806 286.879 144.44C287.443 145.075 288.5 145.392 290.05 145.392H293.115L302.206 103.428H310.133L319.752 145.392H323.029C324.227 145.392 325.143 145.145 325.777 144.652C326.411 144.159 326.834 143.313 327.046 142.115L331.802 103.428H337.827L332.331 143.912C332.049 146.378 331.485 148.21 330.64 149.408C329.794 150.536 328.631 151.276 327.151 151.628C325.672 151.91 323.769 152.051 321.443 152.051H314.679L306.645 116.324L305.8 112.519L305.06 116.429L297.449 152.051H288.253ZM372.287 152.791C368.059 152.791 364.324 152.474 361.082 151.84C357.841 151.205 355.057 150.043 352.732 148.351C350.477 146.59 348.751 144.053 347.553 140.741C346.355 137.429 345.756 133.06 345.756 127.634C345.756 122.137 346.39 117.733 347.658 114.421C348.997 111.039 350.865 108.502 353.261 106.811C355.656 105.119 358.51 103.992 361.822 103.428C365.205 102.864 368.975 102.583 373.132 102.583C377.29 102.583 380.99 102.9 384.231 103.534C387.473 104.098 390.221 105.26 392.476 107.022C394.801 108.713 396.563 111.215 397.761 114.527C398.959 117.839 399.558 122.208 399.558 127.634C399.558 133.201 398.888 137.64 397.55 140.952C396.281 144.264 394.449 146.801 392.053 148.563C389.728 150.254 386.874 151.382 383.491 151.945C380.179 152.509 376.444 152.791 372.287 152.791ZM372.604 148.246C375.564 148.246 378.206 147.999 380.532 147.506C382.857 146.942 384.795 145.955 386.345 144.546C387.966 143.137 389.164 141.093 389.939 138.415C390.785 135.667 391.207 132.073 391.207 127.634C391.207 123.265 390.785 119.741 389.939 117.064C389.164 114.315 387.966 112.237 386.345 110.827C384.795 109.347 382.857 108.361 380.532 107.868C378.206 107.374 375.564 107.128 372.604 107.128C369.574 107.128 366.896 107.374 364.571 107.868C362.316 108.361 360.413 109.347 358.863 110.827C357.312 112.237 356.114 114.315 355.269 117.064C354.494 119.741 354.106 123.265 354.106 127.634C354.106 132.073 354.494 135.667 355.269 138.415C356.114 141.093 357.312 143.137 358.863 144.546C360.413 145.955 362.316 146.942 364.571 147.506C366.896 147.999 369.574 148.246 372.604 148.246ZM440.426 132.073C440.426 132.073 439.439 132.073 437.466 132.073C435.493 132.073 432.85 132.073 429.538 132.073C426.226 132.073 422.562 132.109 418.545 132.179V152.051H410.406V108.925C410.406 106.881 410.829 105.472 411.675 104.697C412.591 103.921 414.071 103.499 416.114 103.428C417.171 103.358 418.545 103.322 420.237 103.322C421.998 103.322 423.936 103.322 426.05 103.322C428.164 103.252 430.314 103.217 432.498 103.217C434.753 103.217 436.902 103.217 438.946 103.217C441.06 103.217 442.927 103.252 444.548 103.322C446.169 103.393 447.437 103.463 448.353 103.534C452.018 103.886 454.695 105.119 456.387 107.233C458.078 109.277 458.923 112.342 458.923 116.429C458.923 119.671 458.465 122.243 457.549 124.146C456.704 126.048 455.4 127.458 453.638 128.374C453.427 128.585 453.075 128.761 452.581 128.902C452.159 128.973 451.7 129.008 451.207 129.008V129.219C451.489 129.219 451.806 129.219 452.159 129.219C452.511 129.219 452.793 129.219 453.004 129.219C455.682 129.713 457.303 130.805 457.866 132.496C458.43 134.117 458.712 135.773 458.712 137.464V149.514C458.712 150.219 458.783 150.818 458.923 151.311C459.064 151.734 459.17 151.98 459.241 152.051H453.533C452.546 152.051 451.771 151.875 451.207 151.522C450.643 151.17 450.362 150.325 450.362 148.986V137.781C450.362 135.597 449.868 134.117 448.882 133.342C447.966 132.496 446.31 132.073 443.914 132.073H440.426ZM418.545 127.634C419.532 127.634 421.082 127.669 423.196 127.74C425.31 127.74 427.601 127.74 430.067 127.74C432.604 127.74 434.929 127.74 437.043 127.74C439.157 127.74 440.708 127.74 441.694 127.74C444.02 127.74 446.063 127.035 447.825 125.626C449.657 124.146 450.573 121.433 450.573 117.486C450.573 114.809 450.045 112.695 448.987 111.144C448.001 109.524 446.38 108.572 444.125 108.29C442.645 108.079 440.813 107.973 438.629 107.973C436.444 107.903 434.189 107.903 431.864 107.973C429.538 107.973 427.389 108.009 425.416 108.079C423.443 108.079 421.963 108.079 420.977 108.079C420.765 108.079 420.307 108.22 419.602 108.502C418.898 108.713 418.545 109.418 418.545 110.616V127.634ZM479.924 103.428V147.4H512.375V152.051H471.891V106.916C471.891 106.141 471.926 105.507 471.997 105.014C472.067 104.52 472.314 104.133 472.737 103.851C473.159 103.569 473.829 103.428 474.745 103.428H479.924ZM570.147 128.162C570.147 133.941 569.513 138.486 568.245 141.798C566.976 145.039 565.144 147.4 562.748 148.88C560.423 150.36 557.534 151.311 554.081 151.734C550.698 152.086 546.858 152.262 542.559 152.262C540.516 152.262 538.366 152.227 536.111 152.157C533.927 152.157 531.742 152.157 529.558 152.157C527.444 152.157 525.506 152.121 523.744 152.051C522.053 152.051 520.679 152.051 519.622 152.051V110.193C519.622 107.938 519.904 106.282 520.467 105.225C521.102 104.168 522.687 103.569 525.224 103.428C526.352 103.358 527.831 103.322 529.664 103.322C531.496 103.322 533.434 103.322 535.477 103.322C537.591 103.252 539.635 103.217 541.608 103.217C543.581 103.217 545.237 103.252 546.576 103.322C550.452 103.463 553.834 103.781 556.723 104.274C559.683 104.767 562.149 105.824 564.122 107.445C566.166 109.066 567.681 111.532 568.667 114.844C569.654 118.085 570.147 122.525 570.147 128.162ZM527.761 147.506C528.254 147.506 529.135 147.541 530.403 147.611C531.742 147.611 533.187 147.611 534.737 147.611C536.287 147.611 537.767 147.647 539.177 147.717C540.656 147.717 541.784 147.717 542.559 147.717C546.153 147.717 549.183 147.471 551.649 146.977C554.116 146.484 556.089 145.568 557.569 144.229C559.119 142.82 560.211 140.847 560.846 138.31C561.55 135.702 561.903 132.32 561.903 128.162C561.903 122.525 561.304 118.262 560.106 115.372C558.978 112.413 557.04 110.404 554.292 109.347C551.614 108.29 547.844 107.762 542.982 107.762C541.995 107.762 540.586 107.762 538.754 107.762C536.992 107.762 535.23 107.797 533.469 107.868C531.707 107.868 530.333 107.938 529.346 108.079C528.853 108.361 528.466 108.748 528.184 109.242C527.902 109.665 527.761 110.545 527.761 111.884V147.506Z" fill="white"/>
</svg>
