<svg width="561" height="111" viewBox="0 0 561 111" fill="none" xmlns="http://www.w3.org/2000/svg">
<g clip-path="url(#clip0_13_35)">
<path d="M112.097 55.5026C112.097 86.1067 86.9523 111.005 56.0509 111.005C25.1444 111 0 86.1016 0 55.5026C0 24.8984 25.1444 0 56.0458 0C86.9523 0 112.097 24.8984 112.097 55.5026ZM7.02702 55.5026C7.02702 82.2671 29.0168 104.047 56.0509 104.042C83.0799 104.042 105.075 82.2671 105.07 55.4974C105.07 28.7329 83.0799 6.95316 56.0458 6.95316C29.0168 6.95316 7.02186 28.7278 7.02702 55.4974V55.5026Z" fill="white"/>
<path d="M97.609 55.5026C97.609 78.1975 78.9649 96.6591 56.0458 96.6591C33.1266 96.6591 14.4826 78.1975 14.4826 55.5026C14.4826 32.8077 33.1266 14.346 56.0458 14.346C78.9649 14.346 97.609 32.8077 97.609 55.5026ZM21.5148 55.5026C21.5148 74.3579 37.0093 89.7008 56.0509 89.7008C75.0926 89.7008 90.5871 74.3579 90.5871 55.5026C90.5871 36.6472 75.0926 21.3043 56.0509 21.3043C37.0093 21.3043 21.5148 36.6472 21.5148 55.5026V55.5026Z" fill="white"/>
<path d="M184.36 86.7509C178.686 86.7509 173.786 85.7488 169.671 83.7242C165.556 81.6996 162.37 78.7547 160.114 74.8896C157.858 71.0245 156.727 66.3157 156.727 60.7532V25.1541H163.227V60.4771C163.227 65.0734 164.002 68.8465 165.556 71.8016C167.11 74.7669 169.444 76.9346 172.557 78.3202C175.67 79.7159 179.599 80.4061 184.365 80.4061C189.131 80.4061 193.049 79.7108 196.163 78.3202C199.276 76.9346 201.605 74.7618 203.164 71.8016C204.718 68.8465 205.493 65.0734 205.493 60.4771V25.1541H211.993V60.7532C211.993 66.3157 210.862 71.0193 208.606 74.8896C206.35 78.7547 203.164 81.6996 199.049 83.7242C194.934 85.7488 190.045 86.7509 184.37 86.7509H184.36Z" fill="white"/>
<path d="M228.995 85.8459H222.505V25.1541H228.995V85.851V85.8459Z" fill="white"/>
<path d="M267.6 46.6168H235.036V41.0901H267.6V46.6168ZM267.6 85.8459H257.811C253.298 85.8459 249.715 84.7876 247.066 82.671C244.412 80.5646 243.085 76.8733 243.085 71.6175V30.4047H249.668V71.9856C249.668 75.1248 250.458 77.2363 252.043 78.3253C253.628 79.4194 256.065 79.9562 259.365 79.9562H267.6V85.8459V85.8459Z" fill="white"/>
<path d="M281.231 85.8459H274.741V41.0901H280.596V53.6825L281.231 54.1375V85.8459ZM281.231 61.5712H279.408V53.3297H281.055C281.478 50.9114 282.346 48.7079 283.662 46.7089C284.969 44.7201 286.719 43.1351 288.918 41.9592C291.108 40.7833 293.798 40.1903 296.968 40.1903C300.448 40.1903 303.293 40.9469 305.523 42.45C307.754 43.9634 309.38 45.9266 310.413 48.3398C311.456 50.7581 311.967 53.3553 311.967 56.1365V60.5692H305.477V57.1335C305.477 53.3297 304.62 50.4871 302.916 48.6159C301.202 46.7446 298.367 45.809 294.407 45.809C289.832 45.809 286.497 47.169 284.385 49.8838C282.284 52.6037 281.225 56.4944 281.225 61.5763L281.231 61.5712Z" fill="white"/>
<path d="M332.005 86.7509C327.559 86.7509 323.955 85.7488 321.214 83.7242C318.467 81.6996 317.099 78.8979 317.099 75.3446C317.099 72.865 317.724 70.8557 318.968 69.3168C320.223 67.7779 321.942 66.5816 324.141 65.7431C326.331 64.8944 328.84 64.2911 331.638 63.9281L354.051 61.4843V65.7431L333.652 68.0029C330.234 68.3045 327.704 68.9436 326.057 69.9099C324.42 70.8762 323.589 72.5378 323.589 74.8896C323.589 77.2414 324.379 78.8314 325.964 80.0073C327.559 81.1832 330.053 81.7763 333.471 81.7763C337.194 81.7763 340.514 81.219 343.446 80.0994C346.374 78.9848 348.723 77.2823 350.489 74.9816C352.255 72.6861 353.143 69.7565 353.143 66.193L354.423 66.6481V73.8057H353.143C351.8 77.9112 349.265 81.0912 345.548 83.3612C341.825 85.621 337.312 86.756 332.01 86.756L332.005 86.7509ZM359.447 85.8459H353.597V73.6166L353.138 73.2536V58.1253C353.138 53.7745 352.095 50.666 350.024 48.7948C347.954 46.9236 344.417 45.988 339.414 45.988C334.411 45.988 330.915 46.8827 328.391 48.6619C325.861 50.4411 324.585 53.3297 324.585 57.3175V57.6754H318.095V57.3175C318.095 54.117 318.952 51.2335 320.656 48.6619C322.37 46.1005 324.838 44.0401 328.07 42.4961C331.303 40.9623 335.237 40.1903 339.868 40.1903C344.5 40.1903 348.186 40.9725 351.077 42.5421C353.979 44.1219 356.096 46.2283 357.438 48.8868C358.776 51.5403 359.447 54.5312 359.447 57.8492V85.8459V85.8459Z" fill="white"/>
<path d="M376.929 85.8459H370.346V25.1541H376.929V85.851V85.8459ZM396.967 85.8459H373.088V79.9562H396.967C402.208 79.9562 406.545 79.0717 409.963 77.2823C413.371 75.5031 415.942 72.7934 417.646 69.1737C419.349 65.554 420.207 60.9935 420.207 55.4974C420.207 50.0014 419.349 45.3642 417.646 41.7752C415.942 38.181 413.371 35.4918 409.963 33.7126C406.545 31.9232 402.208 31.0387 396.967 31.0387H373.088V25.149H396.967C403.127 25.149 408.45 26.3913 412.927 28.8607C417.413 31.3403 420.893 34.8425 423.361 39.3723C425.829 43.8969 427.063 49.2754 427.063 55.4923C427.063 61.7093 425.829 67.0929 423.361 71.6124C420.893 76.1422 417.413 79.6443 412.927 82.1239C408.45 84.5933 403.127 85.8357 396.967 85.8357V85.8459Z" fill="white"/>
<path d="M437.864 85.8459H430.729L458.45 25.149H467.501L495.309 85.8459H487.998L466.494 39.1933L463.107 31.3045H462.565L459.266 39.1933L437.864 85.8459ZM482.231 67.9978H443.26V62.2001H482.231V67.9978Z" fill="white"/>
<path d="M529.897 86.7509C523.856 86.7509 518.507 85.4727 513.835 82.9011C509.167 80.3396 505.527 76.7097 502.904 72.0316C500.282 67.3536 498.97 61.8371 498.97 55.4974C498.97 49.1578 500.276 43.6413 502.904 38.9632C505.527 34.2852 509.167 30.6552 513.835 28.0938C518.502 25.5222 523.856 24.244 529.897 24.244C535.938 24.244 541.452 25.5222 546.089 28.0938C550.72 30.6552 554.365 34.2852 557.019 38.9632C559.673 43.6413 561 49.1578 561 55.4974C561 61.8371 559.673 67.3536 557.019 72.0316C554.365 76.7097 550.72 80.3396 546.089 82.9011C541.458 85.4727 536.052 86.7509 529.897 86.7509ZM529.897 80.5033C535.071 80.5033 539.465 79.5574 543.068 77.6504C546.667 75.7434 549.414 72.9366 551.304 69.2248C553.193 65.5131 554.138 60.9373 554.138 55.5026C554.138 50.0678 553.188 45.4154 551.304 41.7343C549.414 38.0481 546.672 35.2617 543.068 33.3547C539.47 31.4477 535.076 30.5019 529.897 30.5019C524.719 30.5019 520.413 31.4477 516.809 33.3547C513.21 35.2617 510.484 38.0532 508.62 41.7343C506.761 45.4205 505.832 50.0065 505.832 55.5026C505.832 60.9986 506.761 65.5131 508.62 69.2248C510.479 72.9366 513.205 75.7434 516.809 77.6504C520.407 79.5574 524.765 80.5033 529.897 80.5033Z" fill="white"/>
</g>
<defs>
<clipPath id="clip0_13_35">
<rect width="561" height="111" fill="white"/>
</clipPath>
</defs>
</svg>
