<?xml version="1.0" encoding="utf-8"?>
<!-- Generator: Adobe Illustrator 26.3.1, SVG Export Plug-In . SVG Version: 6.00 Build 0)  -->
<svg version="1.1" id="Layer_1" xmlns="http://www.w3.org/2000/svg" xmlns:xlink="http://www.w3.org/1999/xlink" x="0px" y="0px"
	 viewBox="0 0 93.3 101.5" style="enable-background:new 0 0 93.3 101.5;" xml:space="preserve">
<path d="M46.7,5C21.4,5,0.9,25.5,0.9,50.7c0,25.2,20.5,45.7,45.7,45.7c25.2,0,45.7-20.5,45.7-45.7C92.4,25.5,71.9,5,46.7,5z
	 M46.7,90.7c-22.1,0-40-17.9-40-40c0-22.1,17.9-40,40-40c22.1,0,40,17.9,40,40C86.7,72.8,68.7,90.7,46.7,90.7z"/>
<path d="M46.7,16.8C28,16.8,12.8,32,12.8,50.7c0,18.7,15.2,33.9,33.9,33.9c18.7,0,33.9-15.2,33.9-33.9C80.6,32,65.4,16.8,46.7,16.8z
	 M46.7,78.9c-15.5,0-28.2-12.6-28.2-28.2c0-15.5,12.6-28.2,28.2-28.2c15.5,0,28.2,12.6,28.2,28.2C74.8,66.3,62.2,78.9,46.7,78.9z"/>
</svg>
